<svg width="701" height="702" xmlns="http://www.w3.org/2000/svg" xmlns:xlink="http://www.w3.org/1999/xlink" xml:space="preserve" overflow="hidden"><defs><clipPath id="clip0"><rect x="172" y="-780" width="701" height="702"/></clipPath><linearGradient x1="873" y1="-429" x2="172" y2="-429" gradientUnits="userSpaceOnUse" spreadMethod="reflect" id="fill1"><stop offset="0" stop-color="#4C3A00"/><stop offset="0.28" stop-color="#7F6000"/><stop offset="0.61" stop-color="#BF9000"/><stop offset="0.75" stop-color="#CBAC49"/><stop offset="1" stop-color="#F1D649"/></linearGradient></defs><g clip-path="url(#clip0)" transform="translate(-172 780)"><path d="M816.779-539.454C835.517-546.486 856.595-537.003 861.647-517.615 880.69-444.532 875.756-366.883 847.008-296.356 813.68-214.581 750.789-148.397 670.885-111.005 590.978-73.6133 499.935-67.7632 415.914-94.6249 331.893-121.483 261.073-179.075 217.58-255.913 174.088-332.75 161.121-423.184 181.266-509.173 201.412-595.162 253.189-670.384 326.269-719.833 399.349-769.282 488.358-789.322 575.539-775.957 650.732-764.43 719.794-728.785 772.63-674.883 786.643-660.583 783.942-637.602 768.293-625.115 752.644-612.63 729.999-615.417 715.602-629.334 674.425-669.14 621.73-695.469 564.574-704.231 495.416-714.834 424.807-698.937 366.835-659.71 308.863-620.484 267.789-560.812 251.808-492.599 235.827-424.388 246.114-352.647 280.615-291.694 315.116-230.74 371.297-185.056 437.948-163.748 504.6-142.44 576.824-147.082 640.21-176.745 703.595-206.404 753.483-258.906 779.925-323.776 801.776-377.386 806.281-436.186 793.33-492.015 788.801-511.531 798.044-532.422 816.779-539.454Z" fill="url(#fill1)" fill-rule="evenodd"/><text fill="#FFFFFF" font-family="Calibri,Calibri_MSFontService,sans-serif" font-weight="700" font-size="147" transform="matrix(1 0 0 1 394.452 -380)">30<tspan font-size="147" x="148.958" y="0">%</tspan></text></g></svg>