<svg width="1421" height="1647" xmlns="http://www.w3.org/2000/svg" xmlns:xlink="http://www.w3.org/1999/xlink" xml:space="preserve" overflow="hidden"><defs><clipPath id="clip0"><rect x="1434" y="547" width="1421" height="1647"/></clipPath></defs><g clip-path="url(#clip0)" transform="translate(-1434 -547)"><path d="M945.786 207.637C949.55 213.774 953.321 219.904 957.767 229.72 925.148 253.104 930.983 222.631 927.857 208.004 921.535 178.459 920.866 147.385 911.816 118.863 906.903 103.383 891.91 87.923 877.398 79.2046 807.127 36.9702 735.207 55.9409 664.93 80.0063 651.169 84.7219 637.054 100.473 631.396 114.482 615.342 154.178 599.352 194.784 591.186 236.57 580.216 292.637 583.481 348.128 634.693 387.995 645.403 396.328 654.264 406.7 668.94 390.943 693.772 364.296 720.84 339.732 745.609 315.622 792.715 348.223 861.104 356.442 867.249 433.481 880.195 422.54 886.321 411.599 895.44 404.529 911.425 392.13 915.492 361.733 945.628 370.104 933.181 406.474 920.74 442.843 905.835 481.125 884.092 504.888 864.931 526.844 845.48 548.543 809.211 589.003 728.008 591.377 691.253 550.935 656.55 512.754 624.638 472.034 588.06 428.323 586.039 447.066 580.488 464.655 583.033 480.987 592.064 538.966 603.413 596.61 614.685 654.223 647.828 823.507 718.825 978.935 791.237 1135.45 813.417 1183.09 835.457 1229.15 856.55 1276.54 846.844 1273.32 835.091 1270.98 829.818 1263.85 778.701 1194.77 728.715 1124.86 678.268 1055.28 674.176 1049.65 669.073 1044.75 664.438 1039.5 695.256 1141.15 751.192 1226.41 819.176 1303.33 671.385 1184.55 523.593 1065.78 375.801 947.004 373.451 948.935 371.102 950.861 368.759 952.793 370.843 960.343 371.652 968.582 375.245 975.337 389.455 1002.06 403.298 1029.12 419.674 1054.52 433.226 1075.53 446.703 1099.13 466.23 1113.28 522.664 1154.15 582.003 1191.04 640.509 1229.01 654.573 1238.14 673.481 1242.28 683.845 1254.2 715.017 1290.07 753.951 1311.67 797.628 1327.33 802.27 1328.99 804.581 1338.13 807.221 1344.13 810.303 1351.11 811.295 1359.28 815.387 1365.51 829.761 1387.36 821.949 1427.7 804.241 1441 782.661 1422.43 762.433 1405.4 742.761 1387.76 739.23 1384.59 734.885 1377.6 736.155 1374.53 751.04 1338.38 721.484 1328.75 700.587 1315.17 614.458 1259.25 525.639 1207.14 442.295 1147.37 392.726 1111.82 343.953 1070.77 331.922 1003.4 326.024 970.394 316.538 938.026 308.675 905.363 303.932 981.555 303.004 1057.1 304.299 1132.6 305.025 1174.75 281.33 1204.6 254.155 1229.6 243.45 1239.44 217.804 1233.8 198.952 1233.84 181.206 1233.87 163.441 1232.23 145.701 1231.05 138.331 1230.57 131.005 1229.39 115.817 1227.61 127.267 1218.88 131.789 1215.38 136.367 1211.96 143.276 1206.79 150.223 1201.66 157.157 1196.51 144.798 1186.1 133.386 1174.05 119.606 1166.1 114.428 1163.12 102.694 1168 95.8416 1172.3 86.8739 1177.93 79.7879 1186.54 71.8877 1193.86 66.3424 1182.29 59.8378 1171.07 55.5369 1159.05 51.8047 1148.62 50.5607 1137.29 47.1881 1121.56 28.4 1146.76 14.2031 1165.81 0 1184.86 20.7142 1056.1 41.1316 927.263 92.6903 806.052 97.6225 794.468 103.591 783.325 108.719 771.816 128.271 727.985 150.646 685.119 166.321 639.937 183.145 591.433 211.577 563.599 263.167 553.006 335.951 538.056 407.34 516.402 479.581 498.657 523.662 487.83 553.003 456.145 577.084 422.856 586.948 409.22 582.559 376.392 572.695 359.113 548.134 316.071 554.645 271.09 556.736 226.798 557.671 206.968 571.949 187.77 581.997 164.513 613.182 117.689 646.344 76.6414 670.469 30.8403 684.925 3.39738 699.703-4.46222 726.827 2.2737 763.222 11.314 799.7 27.9237 835.981 27.4942 880.258 26.9766 895.674 50.3222 912.877 82.7652 922.887 101.647 942.635 115.372 958 131.42 956.226 152.878 954.451 174.336 951.085 199.393 948.123 204.424 946.885 205.977 945.786 207.637M750.383 468.228C752.208 469.573 754.033 470.917 755.865 472.262 756.023 471.467 756.54 470.115 756.288 469.957 754.084 468.556 751.747 467.357 749.499 461.119 747.762 449.276 746.026 437.433 743.683 421.511 759.995 422.881 771.546 423.859 777.154 424.327 783.602 440.779 786.627 459.314 792.008 460.027 803.982 461.605 819.258 457.06 829.073 449.598 836.032 444.308 840.522 429.301 838.691 420.116 832.691 390.11 806.855 370.041 775.563 367.825 747.358 365.824 725.116 368.57 708.052 399.7 692.282 428.474 691.19 447.496 722.64 458.587 731.462 461.7 740.803 463.329 750.383 468.228M636.227 1013.59C640.124 1016.33 644.02 1019.07 647.917 1021.8 648.801 1018.11 649.685 1014.41 650.575 1010.72 645.422 1010.72 640.275 1010.72 636.227 1013.59Z" fill="#262626" fill-rule="evenodd" transform="matrix(-1 0 0 1 2853 597)"/><path d="M2.26064 282.404C16.8509 260.336 31.0311 241.298 49.7971 216.107 53.1657 231.832 54.4082 243.153 58.136 253.584 62.4319 265.593 68.9288 276.813 74.4675 288.38 82.3585 281.06 89.4361 272.452 98.3932 266.83 105.238 262.526 116.958 257.654 122.13 260.633 135.894 268.571 147.292 280.618 159.637 291.03 152.71 296.173 145.772 301.297 138.871 306.465 134.298 309.892 129.781 313.388 118.345 322.109 133.516 323.895 140.833 325.068 148.194 325.554 165.913 326.728 183.657 328.369 201.382 328.337 220.211 328.3 245.828 333.941 256.52 324.103 283.663 299.107 307.33 269.272 306.605 227.143 305.311 151.671 306.239 76.1605 310.976 0 318.829 32.6502 328.304 65.0039 334.195 98.0008 346.212 165.339 394.928 206.376 444.439 241.91 527.684 301.651 616.398 353.743 702.426 409.641 723.299 423.208 752.82 432.838 737.952 468.971 736.684 472.038 741.024 479.024 744.55 482.192 764.199 499.829 784.404 516.855 805.957 535.414 823.645 522.118 831.448 481.801 817.091 459.954 813.003 453.732 812.013 445.56 808.935 438.581 806.298 432.586 803.989 423.454 799.353 421.795 755.728 406.139 716.839 384.551 685.703 348.695 675.352 336.774 656.466 332.641 642.419 323.516 583.982 285.553 524.713 248.681 468.345 207.827 448.842 193.686 435.38 170.098 421.844 149.097 405.487 123.709 391.661 96.6568 377.468 69.9445 373.878 63.1926 373.071 54.9574 370.99 47.4103 373.33 45.4793 375.676 43.5547 378.023 41.6236 525.64 160.348 673.258 279.072 820.876 397.796 752.971 320.916 697.102 235.688 666.319 134.084 670.949 139.328 676.046 144.224 680.134 149.86 730.521 219.407 780.448 289.289 831.504 358.337 836.771 365.462 848.511 367.803 859.568 369.437 877.502 337.853 893.12 309.198 910.612 279.489 927.921 250.7 943.356 222.972 959.612 193.478 965.529 185.791 970.632 179.878 976.12 176.786 973.817 193.686 974.101 209.279 967.875 221.559 950.869 255.111 930.803 287.092 912.713 320.115 909.003 326.886 908.625 335.481 906.713 343.23 909.849 344.846 912.984 346.455 916.119 348.07 937.824 322.778 959.523 297.486 981.223 272.2 965.686 356.98 917.096 415.118 837.699 448.986 839.112 451.567 840.518 454.148 841.931 456.735 857.096 459.5 872.26 462.27 882.92 464.22 898.98 496.781 912.34 529.879 930.999 559.652 943.981 580.375 962.11 608.268 981.771 611.839 1007.39 616.49 1023.27 631.622 1043.84 641.24 1054.75 646.344 1067.4 647.746 1079.27 650.819 1072.86 641.807 1066.35 632.872 1060.17 623.715 1059.14 622.201 1059.5 619.733 1059.22 617.708 1062.09 618.453 1064.96 619.191 1067.84 619.935 1074.09 599.786 1080.81 579.776 1086.48 559.469 1093.05 535.925 1098.69 512.128 1104.74 488.446 1106.37 496.574 1110.3 505.023 1109.24 512.784 1102.8 559.81 1110.06 604.172 1128.51 647.929 1142.25 680.503 1134.89 690.019 1099.51 690.177 1010.19 690.575 920.862 690.158 831.536 690.158 597.185 690.158 362.833 689.489 128.495 690.997 92.8361 691.224 74.9029 679.474 65.2959 645.6 56.1682 613.436 43.2309 582.061 29.0947 551.682 9.22468 508.967-2.45756 465.639 0.437845 417.838 3.09954 373.836 1.54797 329.574 2.26064 282.404M276.22 500.618C283.638 523.714 291.056 546.81 298.467 569.906 305.734 496.68 333.306 424.698 301.18 343.987 287.176 399.077 258.286 443.098 276.22 500.618Z" fill="#262626" fill-rule="evenodd" transform="matrix(-1 0 0 1 2855 1503)"/><path d="M267.063 900.565C260.958 927.186 255.313 951.004 248.748 974.57 243.078 994.894 236.355 1014.92 230.104 1035.09 227.228 1034.34 224.358 1033.61 221.489 1032.86 221.766 1034.89 221.407 1037.36 222.435 1038.87 228.622 1048.04 235.131 1056.98 241.533 1066 229.669 1062.92 217.024 1061.52 206.113 1056.41 185.545 1046.79 169.665 1031.64 144.052 1026.99 124.393 1023.41 106.267 995.494 93.2868 974.753 74.6306 944.953 61.2725 911.826 45.2148 879.236 34.5559 877.284 19.394 874.511 4.23177 871.744 2.81926 869.155 1.41287 866.572 0 863.988 79.386 830.09 127.969 771.901 143.503 687.045 121.807 712.353 100.111 737.668 78.4084 762.983 75.2739 761.366 72.1395 759.755 69.0047 758.138 70.9159 750.382 71.2942 741.78 75.0027 735.002 93.091 701.95 113.154 669.941 130.157 636.359 136.382 624.068 136.099 608.461 139.05 589.583 181.654 488.614 223.791 392.428 183.559 284.019 182.159 280.249 183.962 275.246 182.455 271.57 167.337 234.672 151.841 197.932 135.607 158.88 128.6 146.993 123.876 135.94 116.017 128.001 80.5655 92.2076 71.5402 47.9516 72.7071 0 138.621 51.7471 214.034 84.2118 293.313 108.749 349.35 126.093 372.239 172.643 386.65 222.356 408.157 296.556 423.849 372.431 443.293 447.263 454.085 488.797 467.664 529.599 479.603 570.843 486.345 594.123 492.311 617.625 498 644.071 478.701 680.16 449.102 686.476 414.382 682.201 394.755 679.788 388.631 671.242 389.76 650.835 391.387 621.276 389.665 591.3 386.373 561.836 385.358 552.766 374.541 544.796 368.209 536.319 361.933 543.917 355.165 551.174 349.584 559.253 346.708 563.408 346.096 569.08 344.198 573.969 322.943 628.647 308.942 688.018 277.836 736.341 256.24 769.886 253.453 794.802 266.489 827.343 266.697 850.775 266.912 874.214 267.063 900.565M369.041 505.276C369.041 505.276 366.928 505.611 366.928 505.611 366.928 505.611 368.984 506.154 369.041 505.276Z" fill="#262626" fill-rule="evenodd" transform="matrix(-1 0 0 1 2017 1088)"/><path d="M325.948 60.9493C325.241 110.475 334.277 154.676 369.771 190.425 377.64 198.354 382.369 209.393 388.652 223.227 397.499 265.826 401.654 306.04 416.127 342.117 434.118 386.961 430.777 432.393 430.721 477.654 430.67 518.437 424.987 559.427 393.824 591.586 389.157 596.406 387.415 606.959 388.671 614.094 393.047 638.872 378.492 647.035 353.202 655.425 345.353 602.714 338.988 552.375 330.122 502.483 321.149 451.999 312.592 401.136 298.523 351.958 285.035 304.798 264.715 259.587 247.394 213.525 253.506 209.16 259.625 204.794 265.738 200.436 271.181 214.888 276.624 229.333 282.061 243.785 287.113 238.556 292.158 233.326 297.203 228.09 276.984 208.699 259.562 183.265 235.503 172.112 220.487 165.154 191.01 150.834 172.584 181.107 164.04 188.437 157.056 194.159 149.289 200.524 158.294 210.125 167.564 217.405 173.386 226.816 181.658 240.19 191.844 254.686 193.296 269.472 196.315 300.288 194.142 331.608 193.915 365.211 201.329 420.496 211.128 473.093 215.947 526.139 221.365 585.789 241.654 646.688 208.704 705 136.433 550.185 65.4433 394.878 32.3041 225.725 21.0325 168.157 9.68512 110.557 0.654942 52.6226-1.88973 36.3035 3.66103 18.7288 5.68182 0 42.256 43.6773 74.164 84.3652 108.863 122.517 145.614 162.927 226.808 160.555 263.073 120.126 282.522 98.4449 301.681 76.5052 323.239 55.3036 325.499 57.0572 325.493 58.1926 325.948 60.9493Z" fill="#ACA4A0" fill-rule="evenodd" transform="matrix(-1 0 0 1 2271 1026)"/><path d="M9.37502 290.468C-5.58769 258.455-2.79294 233.541 18.8614 200 50.052 151.682 64.092 92.3178 85.4042 37.6458 87.3077 32.7576 87.9213 27.0863 90.8054 22.9312 96.4017 14.8536 103.188 7.5974 109.481 0 115.83 8.47558 126.676 16.4453 127.694 25.5141 130.995 54.975 132.722 84.9475 131.09 114.504 129.958 134.908 136.099 143.453 155.78 145.865 190.594 150.141 220.273 143.826 240.707 109.426 258.554 180.556 275.775 252.816 290.503 325.581 302.57 385.185 311.866 445.357 321.896 505.366 323.781 516.664 323.477 528.347 323.952 539.86 324.742 559.254 315.876 569.138 295.853 568.999 238.025 568.589 180.203 568.702 122.382 568.21 91.8106 567.951 88.8954 544.818 85.904 522.379 82.2168 494.743 81.8689 466.261 74.7098 439.585 62.7953 395.169 47.2504 351.669 31.6235 308.365 28.879 300.768 18.2478 296.013 9.37502 290.468Z" fill="#262626" fill-rule="evenodd" transform="matrix(-1 0 0 1 1758 1624)"/><path d="M360.572 313.997C329.246 307.303 325.181 337.679 309.207 350.069 300.093 357.134 293.97 368.068 281.031 379 274.89 302.017 206.541 293.803 159.462 261.225 134.707 285.318 107.655 309.865 82.8372 336.493 68.1689 352.239 59.3136 341.874 48.6092 333.547-2.57272 293.708-5.8358 238.256 5.12775 182.229 13.2887 140.473 29.2696 99.896 45.3143 60.2276 50.9697 46.2289 65.0761 30.4891 78.8293 25.7765 149.066 1.72815 220.944-17.2292 291.174 24.9753 305.678 33.6875 320.663 49.1369 325.573 64.6059 334.618 93.1078 335.287 124.159 341.605 153.683 344.729 168.3 338.897 198.751 372.709 177.201 376.654 178.936 383.439 183.062 382.978 186.071 376.49 228.244 369.017 270.266 360.572 313.997M118.265 196.569C144.477 200.991 155.813 191.989 150.777 163.934 145.342 133.66 101.223 116.172 70.2898 135.451 84.9202 141.331 98.2569 146.687 113.777 152.92 92.1155 161.821 74.424 169.095 56.7322 176.362 57.5211 179.245 58.31 182.128 59.0927 185.012 77.2515 188.462 95.4038 191.92 118.265 196.569M223.803 157.222C228.764 201.78 232.368 203.243 298.521 185.857 288.321 176.722 279.106 168.477 265.744 156.528 283.139 153.708 294.318 151.898 307.932 149.696 273.306 132.6 237.506 135.041 223.803 157.222Z" fill="#A4593F" fill-rule="evenodd" transform="matrix(-1 0 0 1 2267 652)"/><path d="M376 178.845C360.585 165.503 340.829 151.777 330.815 132.891 313.605 100.443 298.184 77.0938 253.889 77.6115 217.593 78.0412 181.101 61.4288 144.691 52.387 117.556 45.65 102.773 53.5109 88.311 80.9582 64.1767 126.767 31.0016 167.821 0 212 3.43712 175.821 8.25125 138.473 13.8362 101.245 14.7205 95.3102 17.532 87.6385 22.0431 84.5951 62.3699 57.394 100.466 23.4747 144.95 6.9825 177.475-5.06476 219.861 0.529618 255.62 8.39698 301.418 18.4677 343.249 43.3579 361.274 89.9621 371.584 116.607 371.464 147.281 376 178.845Z" fill="#262626" fill-rule="evenodd" transform="matrix(-1 0 0 1 2271 547)"/><path d="M0 5.00016C0.0997278 4.40624 1.07649 2.7074 3.0001 0 2.81574 0.504281 1.79425 2.13441 0 5.00016Z" fill="#161616" fill-rule="evenodd" transform="matrix(-1 0 0 1 1906 799)"/><path d="M0 17.1852C16.9036-11.502 46.4339 2.83207 61.4773 9.79744 85.5799 20.9615 103.034 46.4216 123.29 65.8327 118.235 71.0737 113.181 76.3086 108.12 81.5434 102.673 67.0765 97.2199 52.6165 91.7668 38.1496 85.6432 42.5129 79.5133 46.8826 73.3893 51.2524 90.7421 97.3614 111.1 142.618 124.612 189.825 138.707 239.054 147.279 289.968 156.268 340.504 165.15 390.446 171.527 440.836 179.39 493.601 204.726 485.203 219.308 477.031 214.924 452.228 213.665 445.086 215.411 434.522 220.086 429.697 251.306 397.506 256.999 356.474 257.05 315.65 257.107 270.343 260.453 224.865 242.43 179.975 227.931 143.862 223.768 103.606 215.753 63.231 231.922 98.0434 247.466 134.775 262.63 171.665 264.142 175.34 262.332 180.341 263.736 184.111 304.091 292.494 261.826 388.659 218.701 486.781 212.937 494.662 207.82 500.579 199.703 508.712 187.475 515.121 172.602 517.173 170.04 523.892 161.31 546.839 156.913 571.428 150.866 595.392 135.202 624.066 119.539 652.741 102.509 683 79.0576 638.527 56.9795 592.462 34.7621 544.812 67.6389 484.855 47.3129 423.895 41.8851 364.184 37.0582 311.084 27.2404 258.434 22.0336 202.562 63.3563 200.194 69.4294 192.743 63.6786 153.852 60.3893 131.592 58.4407 109.132 55.8914 86.7653 53.9429 88.3947 51.9944 90.0237 50.0459 91.6593 33.3641 66.8364 16.6819 42.0078 0 17.1852Z" fill-rule="evenodd" transform="matrix(-1 0 0 1 2097 1188)"/><path d="M52.7025 97.9928C43.5846 95.6902 34.2332 94.0665 25.4003 90.9641-6.0876 79.9088-4.99365 60.9497 10.7946 32.2691 27.8788 1.24124 50.148-1.49597 78.3858 0.499016 109.716 2.70771 135.582 22.7108 141.589 52.6187 143.423 61.774 138.927 76.7312 131.96 82.0041 122.133 89.4419 106.839 93.9722 94.8504 92.3989 89.4634 91.6883 86.4346 73.2136 79.979 56.8159 74.3646 56.3499 62.8 55.3749 46.4681 54.0092 48.814 69.8788 50.5525 81.6832 52.3926 95.8665 52.4874 98.2381 52.7025 97.9928 52.7025 97.9928Z" fill="#A4593F" fill-rule="evenodd" transform="matrix(-1 0 0 1 2156 965)"/><path d="M0 1.42275C4.62885 0 9.8114 0 14.9998 0 14.1036 3.66655 13.2132 7.33309 12.3229 11 8.3997 8.28566 4.47652 5.56594 0 1.42275Z" fill="#161616" fill-rule="evenodd" transform="matrix(-1 0 0 1 2217 1608)"/><path d="M0 0.100906C1.92601 1.60178 3.99183 2.92189 5.94019 4.46448 6.1633 4.63808 5.70558 6.12505 5.56577 7.00023 3.94683 5.52041 2.33362 4.0406 0.508156 1.13618 0.301638-0.288018 0.111718-0.0170825 0 0.100906Z" fill="#A4593F" fill-rule="evenodd" transform="matrix(-1 0 0 1 2103 1063)"/><path d="M5.26619 154.345C-11.8143 99.147 16.9251 55.11 30.8555 0 62.8144 80.7393 35.3862 152.748 28.1575 226.001 20.7842 202.896 13.4048 179.792 5.26619 154.345Z" fill-rule="evenodd" transform="matrix(-1 0 0 1 2585 1847)"/><path d="M0 84.0002C4.15612 61.0499 8.53906 36.4174 17.2422 13.4299 19.7962 6.69921 34.6232 4.64301 46.0001 0 32.7373 27.3463 17.3053 55.1421 0 84.0002Z" fill="#1D1C1D" fill-rule="evenodd" transform="matrix(-1 0 0 1 1944 1698)"/><path d="M2.00007 0.575336C1.97581 1.66975 0 0.30491 0 0.30491 0 0.30491 2.03022-0.536315 2.00007 0.575336Z" fill="#161616" fill-rule="evenodd" transform="matrix(-1 0 0 1 1650 1593)"/><path d="M23.2294 0C41.3833 23.171 57.9881 47.9622 74.5932 72.7476 76.5327 71.1145 78.4718 69.4879 80.4113 67.861 82.9492 90.1935 84.8887 112.62 88.1628 134.846 93.8866 173.679 87.8417 181.118 46.8994 180.999 44.7269 150.426 46.8933 119.121 43.883 88.321 42.435 73.5418 32.2781 59.0531 24.029 45.6863 18.2234 36.2793 8.97959 29.0033 0 19.407 7.7454 13.0452 14.7095 7.32653 23.2294 0Z" fill="#0D0D0D" fill-rule="evenodd" transform="matrix(-1 0 0 1 2121 1207)"/><path d="M59.0523 68.6777C38.589 64.6231 20.4755 61.1621 2.35548 57.7073 1.5744 54.8209 0.7872 51.9349 0 49.0484 17.654 41.7726 35.3077 34.4903 56.9233 25.579 41.436 19.3389 28.1278 13.9771 13.5286 8.09048 44.3961-11.2102 88.421 6.29681 93.8436 36.6065 98.8696 64.6924 87.5582 73.7052 59.0523 68.6777Z" fill="#1D1C1D" fill-rule="evenodd" transform="matrix(-1 0 0 1 2210 779)"/><path d="M0 17.2453C14.6052-3.32004 50.3895-5.77175 85.0003 11.3975 71.3917 13.6087 60.2187 15.4272 42.8313 18.2589 56.1873 30.2589 65.3983 38.5392 75.5934 47.7132 9.46964 65.1741 5.86749 63.7045 0 17.2453Z" fill="#1D1C1D" fill-rule="evenodd" transform="matrix(-1 0 0 1 2044 790)"/></g></svg>