<svg version="1.1" id="Layer_1" xmlns="http://www.w3.org/2000/svg" xmlns:xlink="http://www.w3.org/1999/xlink" x="0px" y="0px"
	 width="100%" viewBox="0 0 1081 1080" enable-background="new 0 0 1081 1080" xml:space="preserve">
<path fill="#000000" opacity="1.000000" stroke="none" 
	d="
M600.000000,1081.000000 
	C400.023010,1081.000000 200.546021,1081.000000 1.034514,1081.000000 
	C1.034514,721.064514 1.034514,361.129059 1.034514,1.096795 
	C361.227234,1.096795 721.454468,1.096795 1081.840820,1.096795 
	C1081.840820,360.999939 1081.840820,720.999939 1081.840820,1081.000000 
	C921.461914,1081.000000 760.980957,1081.000000 600.000000,1081.000000 
M603.825745,448.531616 
	C603.623474,448.225372 603.339478,448.088257 602.956116,448.028351 
	C602.956116,448.028351 602.866821,448.056244 602.571350,447.529999 
	C601.710999,447.019012 600.850586,446.507996 599.817383,445.569916 
	C599.629211,445.273346 599.362488,445.157227 598.585327,444.895966 
	C598.413452,444.842834 598.241516,444.789673 597.718079,444.184296 
	C596.143372,443.498291 594.568726,442.812286 592.398071,441.827972 
	C591.282654,441.171997 590.167175,440.515991 588.625610,439.287842 
	C580.071350,437.265503 571.517090,435.243164 562.056213,433.040039 
	C557.639954,433.334625 553.223694,433.629181 548.012085,433.900238 
	C545.296448,434.409546 542.580750,434.918884 539.083435,435.596863 
	C535.336243,437.032501 531.589050,438.468109 527.122681,439.957184 
	C522.040894,443.193329 516.959167,446.429474 511.231873,449.916870 
	C509.152679,451.927948 507.073456,453.939026 504.366547,456.205902 
	C487.478271,474.708405 480.925873,496.402161 485.199280,521.026123 
	C487.344421,533.386963 492.216400,544.787354 501.037415,554.882629 
	C505.011505,558.625793 508.985596,562.368958 513.256714,566.715759 
	C518.122375,569.506714 522.987976,572.297668 528.276123,575.683594 
	C533.489136,577.286377 538.702209,578.889099 544.579102,580.921814 
	C550.391724,581.200134 556.204285,581.478455 562.807617,581.903931 
	C565.189758,581.538391 567.571899,581.172852 570.758240,580.920776 
	C576.138916,579.270020 581.519531,577.619263 587.570557,575.865967 
	C588.711609,575.183899 589.852661,574.501831 591.649048,573.944702 
	C592.763489,573.297058 593.877930,572.649414 595.000000,572.001587 
	C595.000000,572.001587 595.003479,571.995483 595.691345,571.881897 
	C602.168030,566.352234 608.644653,560.822571 615.704224,554.884033 
	C615.975464,554.291077 616.117615,553.579834 616.536865,553.122498 
	C627.434692,541.235779 631.916626,526.714294 632.768066,511.112152 
	C633.794189,492.311035 628.325623,475.349152 615.993591,460.390350 
	C615.883789,460.096924 615.673096,459.934204 615.084229,459.381805 
	C614.730408,459.222443 614.376648,459.063080 614.023071,458.977539 
	C614.023071,458.977539 614.095886,458.965485 613.928650,458.451630 
	C613.629639,458.269012 613.330688,458.086395 613.022400,457.976776 
	C613.022400,457.976776 613.095459,457.968201 612.927490,457.450195 
	C612.630188,457.257538 612.332886,457.064911 611.905151,456.424774 
	C611.727417,456.136688 611.469666,455.981323 610.989746,455.283966 
	C609.018616,453.484436 607.047424,451.684906 605.040955,449.957489 
	C605.040955,449.957489 605.121277,449.957214 604.942688,449.448486 
	C604.633911,449.290283 604.325073,449.132080 604.000977,449.001709 
	C604.000977,449.001709 604.027344,448.982330 603.825745,448.531616 
M318.000000,779.000000 
	C318.000000,779.000000 318.000641,778.999390 317.219360,778.795349 
	C308.482086,778.795349 299.744812,778.795349 291.046783,778.795349 
	C291.046783,794.233398 291.046783,808.978821 291.046783,823.742310 
	C293.709473,823.742310 296.119568,823.742310 298.747620,823.742310 
	C298.747620,818.985413 298.747620,814.533203 298.921906,809.445129 
	C298.967834,809.007996 299.013733,808.570801 299.969086,807.940735 
	C303.120605,807.890076 306.271973,807.810059 309.423676,807.794739 
	C316.376282,807.760803 316.773987,807.264526 315.065338,799.945251 
	C310.903198,799.945251 306.603546,800.160339 302.349762,799.813049 
	C301.087311,799.709961 299.954010,798.025146 298.900818,796.180420 
	C298.850067,794.091187 298.799286,792.001892 298.916290,789.024414 
	C300.143036,788.178223 301.319275,786.700806 302.605560,786.597839 
	C307.518494,786.204529 312.466888,786.253662 317.895020,786.332886 
	C318.226776,786.235718 318.558533,786.138611 319.039520,786.241943 
	C319.347504,786.299927 319.525757,786.192871 320.059387,785.212769 
	C319.723083,783.154907 319.386780,781.096985 318.533325,778.822388 
	C318.355957,778.881409 318.178619,778.940369 318.000000,779.000000 
M626.071533,250.687592 
	C619.027222,250.759689 611.982849,250.831772 604.037537,250.648911 
	C586.035767,250.745026 568.034058,250.841141 549.257935,250.690430 
	C536.503113,250.768921 523.748291,250.847412 510.086914,250.722183 
	C506.064636,250.791016 502.042328,250.859863 497.103363,250.701843 
	C489.401978,250.773697 481.700623,250.845551 473.115387,250.687134 
	C470.078888,250.776306 467.042389,250.865479 463.089905,250.739655 
	C457.062103,250.812851 451.034332,250.886047 444.094666,250.731094 
	C438.730438,250.804123 433.366241,250.877167 427.090515,250.712921 
	C417.394257,250.791153 407.698029,250.869385 397.225952,250.697021 
	C396.152313,250.778549 395.078705,250.860092 393.309875,250.645874 
	C392.576050,250.653488 391.842194,250.661102 390.355469,250.328613 
	C386.240540,250.407562 382.125580,250.486526 377.107697,250.297897 
	C368.081146,250.391556 359.054565,250.485229 349.121765,250.314880 
	C343.081085,250.393387 337.040375,250.471909 330.096405,250.296310 
	C324.423218,250.353348 318.750031,250.410385 312.203552,250.200989 
	C309.771729,250.286438 307.339905,250.371872 304.027344,250.278091 
	C298.716370,250.343826 293.405426,250.409561 287.391357,250.261993 
	C286.912689,251.965271 286.015533,253.668365 286.014862,255.371841 
	C285.950958,412.408325 285.952759,569.444885 285.999207,726.481384 
	C285.999664,727.935669 286.656555,729.389832 287.936890,730.964844 
	C310.629364,730.918762 333.321808,730.872620 356.942963,730.945679 
	C364.629761,730.891235 372.316559,730.836792 380.910248,730.938538 
	C384.286377,730.884094 387.662476,730.829712 391.516663,730.916443 
	C391.516663,730.916443 391.942963,730.658142 392.628906,730.236206 
	C392.683899,728.576233 392.786865,726.916260 392.787018,725.256287 
	C392.794678,629.044678 392.786804,532.833130 392.798370,436.621521 
	C392.801544,410.322815 392.860565,384.024109 393.722595,357.791168 
	C394.820831,357.709961 395.919098,357.628784 397.931458,357.753723 
	C407.280945,357.678680 416.630463,357.603668 426.884949,357.754150 
	C430.918671,357.691101 434.952423,357.628021 439.886017,357.784241 
	C443.584503,357.720581 447.282990,357.656921 451.884583,357.802704 
	C455.586914,357.728241 459.289215,357.653778 463.897369,357.789825 
	C467.928802,357.720123 471.960205,357.650421 476.891693,357.793396 
	C480.593506,357.735962 484.295319,357.678497 488.914185,357.825226 
	C496.602600,357.750153 504.291046,357.675110 512.795776,357.811768 
	C514.195557,357.755127 515.595276,357.698486 517.913208,357.838623 
	C527.744873,357.827545 537.576538,357.831787 547.408142,357.802307 
	C569.564697,357.735870 591.721252,357.652802 614.668030,357.783783 
	C615.477661,357.725586 616.287354,357.667419 618.001343,357.809723 
	C633.340393,357.745819 648.679443,357.681946 664.934753,357.785706 
	C669.624512,357.725769 674.314331,357.665833 679.499634,357.758392 
	C679.664734,357.707275 679.829895,357.656128 680.813843,357.814972 
	C682.212280,357.746063 683.610657,357.677155 685.927307,357.791046 
	C691.619690,357.718262 697.312012,357.645508 703.924133,357.763519 
	C710.290405,357.705414 716.656738,357.647308 723.938965,357.780151 
	C730.297058,357.708618 736.655212,357.637115 743.923157,357.760986 
	C748.283936,357.687164 752.644653,357.613373 757.890076,357.747955 
	C760.491394,357.747955 763.092712,357.747955 766.017578,357.747955 
	C766.017578,355.616760 766.017639,353.981812 766.017578,352.346863 
	C766.016663,330.422455 766.015564,308.498077 766.014832,286.573669 
	C766.014465,275.777557 765.988037,264.981323 766.037109,254.185455 
	C766.046936,252.032959 766.187256,250.022278 762.500793,250.503998 
	C761.299927,250.598999 760.099060,250.694000 757.982971,250.677307 
	C752.987366,250.765045 747.991760,250.852798 742.220093,250.692566 
	C741.147583,250.777664 740.075134,250.862762 738.345520,250.731400 
	C737.896545,250.806274 737.447510,250.881134 736.111084,250.706390 
	C732.739807,250.783081 729.368469,250.859772 725.087952,250.690292 
	C716.718689,250.774429 708.349426,250.858551 699.076355,250.682785 
	C692.045471,250.765457 685.014526,250.848129 677.082397,250.672913 
	C672.058350,250.751022 667.034363,250.829132 661.251282,250.624847 
	C649.826843,250.729248 638.402344,250.833633 626.071533,250.687592 
M647.396484,780.406677 
	C637.699951,786.073120 634.768555,795.069458 636.167114,805.431641 
	C637.277405,813.657654 641.396057,820.336121 650.471497,823.749390 
	C657.954834,826.033691 665.212158,825.688782 672.036255,821.628906 
	C673.206116,820.932922 674.770569,819.612183 674.815186,818.525146 
	C675.077759,812.122559 674.944458,805.703674 674.944458,799.276489 
	C668.323669,799.276489 662.410156,799.276489 655.998047,799.276489 
	C656.143433,801.689941 655.661865,805.251648 656.503906,805.598328 
	C659.529297,806.843750 663.001831,807.003052 666.269897,807.566772 
	C667.518799,815.345215 665.619385,817.625061 658.138000,816.910522 
	C655.725586,816.680115 653.394531,815.597900 650.720581,814.301208 
	C641.302795,806.136292 642.237427,794.721741 653.788025,786.891602 
	C658.715271,786.891602 663.642578,786.891602 668.569824,786.891602 
	C668.694092,787.412781 668.818298,787.933960 668.942566,788.455139 
	C670.229004,786.467834 671.515442,784.480591 672.997131,782.191589 
	C664.643433,777.127808 656.549927,776.153687 647.396484,780.406677 
M572.105713,778.948425 
	C568.805115,778.355225 567.861755,779.765564 567.941895,783.017029 
	C568.150574,791.486267 568.014832,799.964050 568.015869,808.438416 
	C568.016479,813.518311 568.015991,818.598267 568.015991,823.591187 
	C578.228821,823.591187 587.758667,823.591187 597.626404,823.591187 
	C597.267212,821.104797 596.966980,819.026611 596.142517,816.369751 
	C592.696411,816.315857 589.240723,816.402283 585.806946,816.167908 
	C582.478516,815.940674 579.172607,815.383850 575.962708,814.042725 
	C575.974060,803.893799 576.027222,793.744507 575.950623,783.596252 
	C575.939453,782.116882 575.308777,780.642090 574.318054,778.941162 
	C573.870544,778.994751 573.423035,779.048340 572.105713,778.948425 
M437.612030,819.822144 
	C438.528931,818.926819 439.445862,818.031555 440.950256,816.848755 
	C452.575226,802.511230 446.585693,783.697144 428.077057,779.050110 
	C422.168732,779.050110 416.260406,779.050110 410.271973,779.050110 
	C410.271973,794.197876 410.271973,808.897095 410.271973,824.047913 
	C418.769257,823.300476 427.328583,825.973206 435.678772,821.020996 
	C436.110992,820.660828 436.543243,820.300659 437.612030,819.822144 
M514.700317,817.986206 
	C515.804504,818.569275 517.608521,818.915405 517.899170,819.773865 
	C519.776672,825.319153 523.850891,824.091431 528.610413,823.586853 
	C521.445679,807.946289 514.507324,792.799927 507.568939,777.653564 
	C507.056793,777.666260 506.544678,777.678894 506.032562,777.691589 
	C504.672302,780.743469 503.312073,783.795410 501.312958,787.210754 
	C495.943268,799.326721 490.573578,811.442749 484.663788,824.777466 
	C488.525940,823.927246 493.009979,824.104553 493.699921,822.572815 
	C495.888428,817.714172 499.441010,817.887329 503.483276,817.970337 
	C506.970825,818.041931 510.463348,817.871887 514.700317,817.986206 
M735.913879,824.996460 
	C746.229980,825.670105 754.756714,822.392944 759.412231,812.749634 
	C763.837158,803.583740 763.332764,794.189392 756.898743,786.072815 
	C749.882446,777.221619 740.346191,776.200745 729.331299,779.211975 
	C722.628906,781.954773 718.019409,786.668945 716.028748,793.691284 
	C711.685608,809.012451 718.510559,820.147217 735.913879,824.996460 
M368.191284,783.590820 
	C368.113403,782.143677 368.035492,780.696533 367.949219,779.093445 
	C365.251831,779.093445 362.861176,779.093445 360.342896,779.093445 
	C360.342896,794.192444 360.342896,809.007629 360.342896,823.677734 
	C363.090057,823.677734 365.490051,823.677734 368.190125,823.677734 
	C368.190125,810.421082 368.190125,797.498962 368.191284,783.590820 
z"/>
<path fill="#F6E99C" opacity="1.000000" stroke="none" 
	d="
M350.028015,250.578888 
	C359.054565,250.485229 368.081146,250.391556 377.579651,250.771790 
	C377.699463,255.077255 377.040619,258.908722 377.039337,262.740356 
	C376.987823,415.452911 377.005798,568.165466 376.938354,720.877991 
	C376.936707,724.624207 377.217041,728.022583 380.003357,730.782410 
	C372.316559,730.836792 364.629761,730.891235 356.473572,730.679993 
	C356.004211,730.414307 355.983429,730.002441 356.396057,730.005676 
	C358.146729,729.805969 359.484772,729.603027 360.060425,729.515686 
	C360.409210,723.909241 360.930450,719.172241 360.958252,714.432312 
	C361.060425,697.016541 360.998840,679.599731 360.998871,662.183350 
	C360.998901,640.767944 360.998932,619.352539 360.998901,597.937134 
	C360.998901,576.688354 360.998840,555.439636 360.998840,534.190857 
	C360.998810,512.942078 361.126282,491.692322 360.959015,470.444855 
	C360.821564,452.986969 360.074707,435.531830 360.074738,418.075470 
	C360.074738,400.619110 360.712097,383.163452 360.978210,365.706085 
	C361.098938,357.786774 361.100830,349.862518 360.975769,341.943329 
	C360.718536,325.652252 360.310852,309.363556 360.033752,293.072723 
	C359.974426,289.585876 360.376465,286.088379 360.260193,282.606018 
	C360.125488,278.571198 360.176056,274.415710 359.201111,270.551056 
	C357.845001,265.175537 356.606415,260.160889 362.992004,254.894348 
	C359.534302,253.655548 357.230682,252.789963 354.898773,252.008667 
	C353.295471,251.471497 351.652985,251.051346 350.028015,250.578888 
z"/>
<path fill="#F5E173" opacity="1.000000" stroke="none" 
	d="
M313.076843,250.467438 
	C318.750031,250.410385 324.423218,250.353348 330.723022,250.752655 
	C334.105164,251.468994 336.881836,252.074554 339.611145,251.907227 
	C343.611542,251.661942 345.081635,252.827301 345.087769,257.146637 
	C345.311218,414.760925 345.657349,572.375000 345.523499,729.996826 
	C340.706146,730.000610 336.351837,729.996643 331.943115,729.609985 
	C330.926208,722.921753 329.130157,716.617126 329.123444,710.310486 
	C328.965790,562.002869 328.996307,413.695038 329.034698,265.387238 
	C329.035492,262.256683 329.407471,259.108185 329.842621,256.001160 
	C330.226959,253.257050 329.484100,251.904144 326.491913,251.981628 
	C321.995789,252.098053 317.494324,252.010437 312.979675,251.999329 
	C312.964172,251.989075 312.932617,251.969498 312.966003,251.719208 
	C313.025238,251.135101 313.051056,250.801270 313.076843,250.467438 
z"/>
<path fill="#F7E788" opacity="1.000000" stroke="none" 
	d="
M345.986572,729.989136 
	C345.657349,572.375000 345.311218,414.760925 345.087769,257.146637 
	C345.081635,252.827301 343.611542,251.661942 339.611145,251.907227 
	C336.881836,252.074554 334.105164,251.468994 331.174683,250.879715 
	C337.040375,250.471909 343.081085,250.393387 349.574890,250.446884 
	C351.652985,251.051346 353.295471,251.471497 354.898773,252.008667 
	C357.230682,252.789963 359.534302,253.655548 362.992004,254.894348 
	C356.606415,260.160889 357.845001,265.175537 359.201111,270.551056 
	C360.176056,274.415710 360.125488,278.571198 360.260193,282.606018 
	C360.376465,286.088379 359.974426,289.585876 360.033752,293.072723 
	C360.310852,309.363556 360.718536,325.652252 360.975769,341.943329 
	C361.100830,349.862518 361.098938,357.786774 360.978210,365.706085 
	C360.712097,383.163452 360.074738,400.619110 360.074738,418.075470 
	C360.074707,435.531830 360.821564,452.986969 360.959015,470.444855 
	C361.126282,491.692322 360.998810,512.942078 360.998840,534.190857 
	C360.998840,555.439636 360.998901,576.688354 360.998901,597.937134 
	C360.998932,619.352539 360.998901,640.767944 360.998871,662.183350 
	C360.998840,679.599731 361.060425,697.016541 360.958252,714.432312 
	C360.930450,719.172241 360.409210,723.909241 360.060425,729.515686 
	C359.484772,729.603027 358.146729,729.805969 355.943756,730.016418 
	C352.048096,730.012329 349.017334,730.000732 345.986572,729.989136 
z"/>
<path fill="#F0D447" opacity="1.000000" stroke="none" 
	d="
M288.094452,250.475311 
	C293.405426,250.409561 298.716370,250.343826 304.628693,250.699310 
	C307.797577,251.403519 310.365082,251.686508 312.932617,251.969498 
	C312.932617,251.969498 312.964172,251.989075 312.981262,252.466904 
	C313.004578,411.959076 313.010834,570.973450 312.553101,729.993225 
	C308.066315,730.001953 304.043518,730.005188 300.013184,729.560913 
	C296.617462,706.611023 298.034973,683.953613 298.068054,661.364990 
	C298.262543,528.580200 298.667969,395.795776 298.995056,263.011230 
	C299.022156,252.020584 298.997253,252.020523 288.015198,251.612671 
	C288.064667,250.981201 288.079559,250.728241 288.094452,250.475311 
z"/>
<path fill="#FBF2B2" opacity="1.000000" stroke="none" 
	d="
M380.456787,730.860474 
	C377.217041,728.022583 376.936707,724.624207 376.938354,720.877991 
	C377.005798,568.165466 376.987823,415.452911 377.039337,262.740356 
	C377.040619,258.908722 377.699463,255.077255 378.031128,250.905594 
	C382.125580,250.486526 386.240540,250.407562 390.706940,250.830917 
	C391.040985,251.554657 391.023529,251.776093 391.004181,252.386688 
	C390.751678,253.885361 390.549286,255.008423 390.242188,256.102081 
	C388.845032,261.078064 386.814758,265.968353 386.164703,271.037292 
	C385.451904,276.595428 386.048492,282.316132 385.989319,287.965057 
	C385.931854,293.449463 385.776642,298.819855 389.149475,303.750122 
	C390.152679,305.216553 389.817871,307.925812 389.437988,309.941559 
	C388.687347,313.924774 385.889038,318.250427 386.809601,321.658691 
	C388.403442,327.559753 390.150299,332.946533 387.431915,338.868286 
	C387.134979,339.515137 387.843323,340.773438 388.330383,341.604553 
	C390.589508,345.459442 391.717072,349.402252 390.671906,353.971008 
	C390.436707,354.999207 392.103058,356.462433 392.893982,357.725403 
	C392.860565,384.024109 392.801544,410.322815 392.798370,436.621521 
	C392.786804,532.833130 392.794678,629.044678 392.787018,725.256287 
	C392.786865,726.916260 392.683899,728.576233 392.188965,730.330750 
	C391.418365,730.324585 391.181549,730.441223 391.038605,730.775269 
	C387.662476,730.829712 384.286377,730.884094 380.456787,730.860474 
z"/>
<path fill="#BE9B2E" opacity="1.000000" stroke="none" 
	d="
M586.900146,575.968506 
	C581.519531,577.619263 576.138916,579.270020 570.044189,580.629150 
	C566.885193,580.227478 564.440125,580.117432 561.747559,580.003784 
	C561.500000,580.000244 561.004883,579.995117 561.005432,579.573242 
	C561.004272,574.414978 560.880676,569.674805 561.029419,564.943237 
	C561.252869,557.835022 561.927063,550.732910 561.926880,543.628174 
	C561.926697,536.523438 561.024109,529.416626 561.069946,522.314331 
	C561.145325,510.633240 561.819702,498.956848 561.960144,487.275085 
	C562.124939,473.567078 562.061462,459.854797 561.936523,446.145844 
	C561.901794,442.343231 561.298035,438.545776 560.928345,434.446594 
	C561.299316,434.223083 562.131042,433.721924 562.962830,433.220795 
	C571.517090,435.243164 580.071350,437.265503 588.821960,439.973236 
	C586.083557,447.161438 583.902893,453.800598 584.983215,461.109985 
	C585.418152,464.052582 585.987366,467.027008 585.949463,469.979950 
	C585.508789,504.308167 586.996399,538.648254 585.371887,572.971497 
	C585.325867,573.944153 586.366272,574.968323 586.900146,575.968506 
z"/>
<path fill="#C2A33E" opacity="1.000000" stroke="none" 
	d="
M550.032288,250.937256 
	C568.034058,250.841141 586.035767,250.745026 604.706665,251.041000 
	C606.254639,251.621658 607.133423,251.810211 608.007935,252.404510 
	C607.839050,254.116653 608.152832,255.855209 607.429077,256.656464 
	C603.827026,260.644257 605.909302,264.630920 606.721863,268.842010 
	C607.813049,274.497192 608.814575,280.279053 608.833801,286.009979 
	C608.880371,299.872864 608.162903,313.736847 608.094788,327.602112 
	C608.055298,335.636810 608.702209,343.673950 608.974731,351.712189 
	C609.017761,352.981384 608.713318,354.262329 608.603027,355.240784 
	C606.494263,355.913361 604.811523,356.450073 602.652954,357.021179 
	C584.747864,357.030426 567.318604,357.005249 549.928833,356.737366 
	C549.968384,356.494659 549.995117,356.003662 549.983521,355.580994 
	C549.648743,352.201843 549.025452,349.242981 549.048645,346.289215 
	C549.295410,314.846466 549.644775,283.404541 549.975098,251.705627 
	C550.000305,251.278320 550.016296,251.107788 550.032288,250.937256 
M561.222229,320.833221 
	C561.391052,323.791840 561.622375,326.748474 561.716492,329.709473 
	C561.957458,337.287506 562.364319,344.871735 562.222595,352.444458 
	C562.170593,355.225098 562.908813,356.028595 565.430725,356.007477 
	C571.255127,355.958801 577.080261,356.004059 582.905090,355.997070 
	C589.287964,355.989441 590.110291,355.383118 589.920654,348.832733 
	C589.782959,344.076447 588.772278,339.351868 588.422119,334.593201 
	C588.155701,330.972076 587.513245,327.096252 588.450989,323.726990 
	C590.482971,316.426239 589.625183,309.547913 588.601807,302.187805 
	C587.605286,295.021088 589.962708,287.455597 589.854797,280.079712 
	C589.735107,271.901642 586.741577,263.843140 588.931030,255.502762 
	C589.570801,253.065964 588.082397,251.932175 585.500977,251.980927 
	C580.010986,252.084625 574.517639,251.998260 569.025635,252.005753 
	C562.013916,252.015305 562.002319,252.022079 561.999939,258.832703 
	C561.993530,277.228790 562.012695,295.624878 561.976807,314.020905 
	C561.972961,315.999329 561.674622,317.977142 561.222229,320.833221 
z"/>
<path fill="#FDF9CC" opacity="1.000000" stroke="none" 
	d="
M425.979950,357.528656 
	C416.630463,357.603668 407.280945,357.678680 397.473450,357.237457 
	C397.010315,350.155670 397.125702,343.587280 396.970764,337.025299 
	C396.757629,328.000214 396.115967,318.980865 396.080109,309.957397 
	C396.050873,302.601288 396.670380,295.243805 396.937653,287.884552 
	C397.009766,285.899933 396.936920,283.899414 396.775330,281.918884 
	C396.225403,275.177765 395.515472,268.448090 395.088715,261.699982 
	C395.001770,260.325256 395.916748,258.899292 396.305878,257.479431 
	C396.900421,255.310181 397.439301,253.125656 398.001770,250.947617 
	C407.698029,250.869385 417.394257,250.791153 427.477173,251.196106 
	C423.466827,255.455536 425.264984,260.450104 425.199341,265.093292 
	C425.080688,273.487885 424.925049,281.882141 424.732269,290.275330 
	C424.702545,291.571594 424.169891,292.875580 424.250275,294.152008 
	C424.774536,302.477264 425.735199,310.788483 425.921692,319.118408 
	C426.208191,331.915863 425.986176,344.724670 425.979950,357.528656 
z"/>
<path fill="#E9DB8B" opacity="1.000000" stroke="none" 
	d="
M677.983643,250.930817 
	C685.014526,250.848129 692.045471,250.765457 699.791138,251.088898 
	C707.673584,252.790710 709.242004,255.674942 707.206116,263.000519 
	C706.465149,265.666748 706.013184,268.548950 706.146790,271.297760 
	C706.588013,280.378143 707.860107,289.440979 707.890198,298.513611 
	C707.944702,314.941589 707.208862,331.370850 707.088928,347.801666 
	C707.059448,351.831055 706.574951,355.230896 703.004395,357.572723 
	C697.312012,357.645508 691.619690,357.718262 685.470886,357.256378 
	C685.010559,341.265167 684.998413,325.808655 685.006714,310.352112 
	C685.010254,303.784546 684.953369,297.214539 685.110596,290.650085 
	C685.294983,282.954865 685.717896,275.265686 685.969482,267.571625 
	C686.130859,262.636353 686.169922,257.697052 686.269592,252.453827 
	C684.248047,252.082260 681.115845,251.506546 677.983643,250.930817 
z"/>
<path fill="#F5EDB1" opacity="1.000000" stroke="none" 
	d="
M725.997192,250.936462 
	C729.368469,250.859772 732.739807,250.783081 736.706177,251.050293 
	C737.868347,251.245438 738.435486,251.096664 739.002625,250.947876 
	C740.075134,250.862762 741.147583,250.777664 742.653137,251.198563 
	C743.389954,256.415100 743.941589,261.124878 743.956604,265.836334 
	C744.041992,292.628540 744.037842,319.421326 743.956116,346.213562 
	C743.944580,349.998474 743.342224,353.781647 743.013306,357.565613 
	C736.655212,357.637115 730.297058,357.708618 723.499512,357.313721 
	C723.706726,352.473358 724.802856,348.110474 724.911377,343.723206 
	C725.180969,332.823547 724.999939,321.912750 725.000000,311.006409 
	C725.000000,301.431702 724.938843,291.856323 725.040039,282.282684 
	C725.067871,279.656586 726.366516,276.825073 725.729431,274.450745 
	C723.598755,266.510559 724.134155,258.752106 725.997192,250.936462 
z"/>
<path fill="#EFE49D" opacity="1.000000" stroke="none" 
	d="
M725.542603,250.813385 
	C724.134155,258.752106 723.598755,266.510559 725.729431,274.450745 
	C726.366516,276.825073 725.067871,279.656586 725.040039,282.282684 
	C724.938843,291.856323 725.000000,301.431702 725.000000,311.006409 
	C724.999939,321.912750 725.180969,332.823547 724.911377,343.723206 
	C724.802856,348.110474 723.706726,352.473358 723.041504,357.218262 
	C716.656738,357.647308 710.290405,357.705414 703.464233,357.668121 
	C706.574951,355.230896 707.059448,351.831055 707.088928,347.801666 
	C707.208862,331.370850 707.944702,314.941589 707.890198,298.513611 
	C707.860107,289.440979 706.588013,280.378143 706.146790,271.297760 
	C706.013184,268.548950 706.465149,265.666748 707.206116,263.000519 
	C709.242004,255.674942 707.673584,252.790710 700.243042,251.218842 
	C708.349426,250.858551 716.718689,250.774429 725.542603,250.813385 
z"/>
<path fill="#CFB75B" opacity="1.000000" stroke="none" 
	d="
M617.096985,357.609222 
	C616.287354,357.667419 615.477661,357.725586 613.997803,357.519348 
	C612.263672,357.149231 611.199890,357.043549 610.424316,356.661316 
	C614.191284,356.256439 617.695068,355.808807 621.142517,356.079346 
	C625.609131,356.429871 626.971436,355.051331 627.156616,350.331146 
	C627.785767,334.292084 624.779968,318.108673 628.895630,302.202576 
	C629.011902,301.753082 628.854187,301.209412 628.743469,300.728241 
	C627.969666,297.364868 626.700562,294.035950 626.488770,290.639954 
	C626.094055,284.311676 624.736450,278.158569 626.612488,271.529205 
	C628.353027,265.378662 627.641296,258.534149 628.474792,251.994507 
	C633.621765,251.998840 638.303223,252.003860 643.040283,252.392883 
	C643.063293,255.695312 642.862183,258.623383 643.028564,261.530426 
	C643.614441,271.769989 644.862122,282.001465 644.878967,292.237610 
	C644.914062,313.488739 644.321411,334.740936 643.520813,355.993011 
	C634.402222,356.531982 625.749573,357.070618 617.096985,357.609222 
z"/>
<path fill="#DFCB80" opacity="1.000000" stroke="none" 
	d="
M511.979462,357.600037 
	C504.291046,357.675110 496.602600,357.750153 488.447723,357.333679 
	C487.690125,355.052368 487.117950,353.256744 487.154724,351.473724 
	C487.353149,341.850922 487.967682,332.230286 487.931885,322.610748 
	C487.888550,310.990265 487.279938,299.372894 487.037659,287.751617 
	C486.947693,283.436584 487.065765,279.105896 487.334076,274.797607 
	C487.668091,269.434418 488.930084,264.036133 488.530670,258.748230 
	C488.181396,254.124359 490.631989,253.072815 493.860565,252.022476 
	C495.221619,251.579681 496.632050,251.288696 498.020050,250.928711 
	C502.042328,250.859863 506.064636,250.791016 510.546082,251.092163 
	C511.012848,251.640762 511.020477,251.819382 510.590698,251.998001 
	C505.904205,251.324722 504.785278,253.285309 504.916748,257.327637 
	C505.189331,265.709625 504.998657,274.106659 504.998779,282.497528 
	C504.999115,304.420441 505.005554,326.343353 504.994690,348.266266 
	C504.992676,352.324310 505.232697,356.123993 510.755676,356.213257 
	C511.170959,356.219971 511.571869,357.116913 511.979462,357.600037 
z"/>
<path fill="#C6A841" opacity="1.000000" stroke="none" 
	d="
M611.131958,455.958679 
	C611.469666,455.981323 611.727417,456.136688 612.080444,456.888367 
	C612.535706,457.557373 612.815552,457.762787 613.095459,457.968201 
	C613.095459,457.968201 613.022400,457.976776 613.140869,458.174438 
	C613.538208,458.569885 613.817078,458.767670 614.095886,458.965485 
	C614.095886,458.965485 614.023071,458.977539 614.177124,459.187988 
	C614.674683,459.566376 615.018066,459.734283 615.361511,459.902191 
	C615.673096,459.934204 615.883789,460.096924 615.970825,460.982056 
	C615.766663,462.212708 615.352722,462.885223 615.439392,463.485443 
	C616.464783,470.587769 615.632141,477.270233 611.514771,483.383606 
	C610.941650,484.234619 610.980957,485.641144 611.063416,486.766541 
	C611.480652,492.464020 612.289856,498.148193 612.398804,503.847778 
	C612.478638,508.026550 611.253906,512.235168 611.380371,516.407166 
	C611.624756,524.470886 612.442627,532.516357 612.934937,540.574707 
	C612.992310,541.513672 612.646240,542.558167 612.230408,543.431580 
	C609.960876,548.199158 610.203918,552.301331 615.121277,555.292847 
	C608.644653,560.822571 602.168030,566.352234 595.403320,571.530579 
	C595.743469,565.934082 596.776489,560.699524 596.915161,555.441406 
	C597.198242,544.706848 597.000000,533.959473 597.000000,523.217407 
	C597.000000,511.975891 596.980286,500.734344 597.004944,489.492859 
	C597.035461,475.598938 596.210815,461.640808 600.350220,448.011414 
	C601.429077,448.023529 602.147949,448.039886 602.866821,448.056244 
	C602.866821,448.056244 602.956116,448.028351 603.103455,448.259613 
	C603.470886,448.715973 603.729736,448.879791 604.027344,448.982330 
	C604.027344,448.982330 604.000977,449.001709 604.133545,449.210571 
	C604.551147,449.598724 604.836243,449.777954 605.121277,449.957214 
	C605.121277,449.957214 605.040955,449.957489 605.043091,450.289917 
	C607.074158,452.401154 609.103027,454.179932 611.131958,455.958679 
z"/>
<path fill="#E3D07B" opacity="1.000000" stroke="none" 
	d="
M677.533020,250.801880 
	C681.115845,251.506546 684.248047,252.082260 686.269592,252.453827 
	C686.169922,257.697052 686.130859,262.636353 685.969482,267.571625 
	C685.717896,275.265686 685.294983,282.954865 685.110596,290.650085 
	C684.953369,297.214539 685.010254,303.784546 685.006714,310.352112 
	C684.998413,325.808655 685.010559,341.265167 685.011780,357.164978 
	C683.610657,357.677155 682.212280,357.746063 680.365051,357.516022 
	C679.612183,357.346680 679.308105,357.476257 679.004089,357.605896 
	C674.314331,357.665833 669.624512,357.725769 664.487610,357.432739 
	C664.016357,356.721466 663.992310,356.363159 664.394104,356.003906 
	C666.410583,355.899628 668.001221,355.796326 669.729858,355.684113 
	C669.729858,320.958527 669.729858,286.768677 669.729858,251.996445 
	C667.533752,251.996445 664.754700,251.996445 661.984741,251.724152 
	C661.999390,251.270340 662.004883,251.088791 662.010315,250.907257 
	C667.034363,250.829132 672.058350,250.751022 677.533020,250.801880 
M674.486145,252.567276 
	C674.486145,252.567276 674.438049,252.479797 674.486145,252.567276 
z"/>
<path fill="#C9AA49" opacity="1.000000" stroke="none" 
	d="
M561.004883,579.995117 
	C561.004883,579.995117 561.500000,580.000244 561.747986,580.295288 
	C562.002930,580.979126 562.009888,581.367981 562.016907,581.756775 
	C556.204285,581.478455 550.391724,581.200134 544.102234,580.347778 
	C542.086304,578.107178 539.385376,576.554993 539.208069,574.754333 
	C538.413635,566.685852 538.101379,558.548279 538.048523,550.432800 
	C537.911377,529.381958 538.062866,508.329224 537.958923,487.277954 
	C537.933655,482.157410 537.165466,477.042175 537.098877,471.919800 
	C537.006042,464.781036 535.952087,457.287537 537.752991,450.604309 
	C539.270081,444.974335 537.551941,442.329926 533.296814,438.853027 
	C535.757446,438.606049 537.604919,438.420593 539.697083,438.210602 
	C539.748596,437.357941 539.806824,436.393097 539.865112,435.428223 
	C542.580750,434.918884 545.296448,434.409546 548.786865,434.014008 
	C550.193787,438.429108 551.326660,442.729462 551.335022,447.032013 
	C551.346252,452.788818 550.135132,458.543152 550.066650,464.305908 
	C549.871460,480.713104 550.001404,497.124084 549.963867,513.533447 
	C549.960510,515.000916 549.519836,516.469604 549.538269,517.934509 
	C549.637695,525.831665 550.009155,533.729919 549.919373,541.623596 
	C549.819397,550.414490 549.160034,559.198669 549.042603,567.989746 
	C548.881897,580.022705 549.002441,580.024292 561.004883,579.995117 
z"/>
<path fill="#C2A33E" opacity="1.000000" stroke="none" 
	d="
M561.005432,579.573242 
	C549.002441,580.024292 548.881897,580.022705 549.042603,567.989746 
	C549.160034,559.198669 549.819397,550.414490 549.919373,541.623596 
	C550.009155,533.729919 549.637695,525.831665 549.538269,517.934509 
	C549.519836,516.469604 549.960510,515.000916 549.963867,513.533447 
	C550.001404,497.124084 549.871460,480.713104 550.066650,464.305908 
	C550.135132,458.543152 551.346252,452.788818 551.335022,447.032013 
	C551.326660,442.729462 550.193787,438.429108 549.184509,434.025757 
	C553.223694,433.629181 557.639954,433.334625 562.509521,433.130432 
	C562.131042,433.721924 561.299316,434.223083 560.928345,434.446594 
	C561.298035,438.545776 561.901794,442.343231 561.936523,446.145844 
	C562.061462,459.854797 562.124939,473.567078 561.960144,487.275085 
	C561.819702,498.956848 561.145325,510.633240 561.069946,522.314331 
	C561.024109,529.416626 561.926697,536.523438 561.926880,543.628174 
	C561.927063,550.732910 561.252869,557.835022 561.029419,564.943237 
	C560.880676,569.674805 561.004272,574.414978 561.005432,579.573242 
z"/>
<path fill="#F9F5C3" opacity="1.000000" stroke="none" 
	d="
M743.468262,357.663300 
	C743.342224,353.781647 743.944580,349.998474 743.956116,346.213562 
	C744.037842,319.421326 744.041992,292.628540 743.956604,265.836334 
	C743.941589,261.124878 743.389954,256.415100 743.041138,251.322540 
	C747.991760,250.852798 752.987366,250.765045 758.702759,250.899200 
	C759.620056,251.185669 759.817566,251.250229 759.930420,251.705475 
	C759.563110,254.381287 759.114014,256.660065 759.026733,258.952637 
	C758.673706,268.222137 758.232056,277.495300 758.208191,286.768127 
	C758.186218,295.298401 758.851501,303.829895 758.852722,312.360901 
	C758.853760,319.560242 758.349487,326.760162 758.045166,333.958832 
	C757.712830,341.819702 757.353210,349.679352 757.005493,357.539551 
	C752.644653,357.613373 748.283936,357.687164 743.468262,357.663300 
z"/>
<path fill="#F2EAB6" opacity="1.000000" stroke="none" 
	d="
M445.006531,250.959259 
	C451.034332,250.886047 457.062103,250.812851 463.335938,251.105209 
	C462.720917,251.646973 461.859833,251.823181 460.541016,251.998428 
	C456.859100,251.997482 453.634918,251.997482 451.024048,251.997482 
	C451.390015,257.625854 451.989075,262.316559 451.934692,266.999664 
	C451.839386,275.210144 451.301544,283.414642 451.048065,291.624695 
	C450.992401,293.428741 451.439850,295.242706 451.497528,297.057159 
	C451.580902,299.681366 451.531067,302.310211 451.517822,304.936951 
	C451.504547,307.563843 451.454803,310.190521 451.442505,312.817383 
	C451.429443,315.602203 451.471497,318.387543 451.433533,321.171906 
	C451.402008,323.482513 451.243408,325.791565 451.221344,328.102081 
	C451.163269,334.190460 451.157990,340.279266 451.113800,346.367798 
	C451.086639,350.109772 451.026672,353.851471 450.981445,357.593262 
	C447.282990,357.656921 443.584503,357.720581 439.413818,357.305298 
	C438.293579,352.464874 437.131958,348.107422 437.097931,343.741180 
	C437.010834,332.563812 437.615845,321.382172 437.593445,310.202942 
	C437.562164,294.587891 437.168823,278.973907 437.015106,263.358643 
	C436.923981,254.101608 436.997223,254.100891 445.006531,250.959259 
z"/>
<path fill="#CDB258" opacity="1.000000" stroke="none" 
	d="
M539.474243,435.512543 
	C539.806824,436.393097 539.748596,437.357941 539.697083,438.210602 
	C537.604919,438.420593 535.757446,438.606049 533.296814,438.853027 
	C537.551941,442.329926 539.270081,444.974335 537.752991,450.604309 
	C535.952087,457.287537 537.006042,464.781036 537.098877,471.919800 
	C537.165466,477.042175 537.933655,482.157410 537.958923,487.277954 
	C538.062866,508.329224 537.911377,529.381958 538.048523,550.432800 
	C538.101379,558.548279 538.413635,566.685852 539.208069,574.754333 
	C539.385376,576.554993 542.086304,578.107178 543.770264,580.132812 
	C538.702209,578.889099 533.489136,577.286377 528.330750,575.144226 
	C527.923584,568.203064 527.202515,561.807495 527.048523,555.398315 
	C526.581604,535.971375 526.311829,516.539429 526.033875,497.108521 
	C526.003357,494.977203 526.496338,492.843719 526.610840,490.703979 
	C527.020874,483.038300 527.593323,475.371979 527.680908,467.701080 
	C527.760254,460.750000 527.204468,453.793823 527.103638,446.837372 
	C527.070251,444.530212 527.580261,442.215179 527.841858,439.903748 
	C531.589050,438.468109 535.336243,437.032501 539.474243,435.512543 
z"/>
<path fill="#DFCB80" opacity="1.000000" stroke="none" 
	d="
M500.871429,554.237610 
	C492.216400,544.787354 487.344421,533.386963 485.199280,521.026123 
	C480.925873,496.402161 487.478271,474.708405 504.677185,456.468567 
	C503.292206,460.652985 504.806519,464.562866 504.853912,468.494995 
	C505.138397,492.100281 505.010040,515.710754 504.969208,539.319458 
	C504.964996,541.754211 503.656616,544.708313 504.629486,546.522644 
	C507.242462,551.395325 504.999268,553.076965 500.871429,554.237610 
z"/>
<path fill="#E5D492" opacity="1.000000" stroke="none" 
	d="
M497.561707,250.815277 
	C496.632050,251.288696 495.221619,251.579681 493.860565,252.022476 
	C490.631989,253.072815 488.181396,254.124359 488.530670,258.748230 
	C488.930084,264.036133 487.668091,269.434418 487.334076,274.797607 
	C487.065765,279.105896 486.947693,283.436584 487.037659,287.751617 
	C487.279938,299.372894 487.888550,310.990265 487.931885,322.610748 
	C487.967682,332.230286 487.353149,341.850922 487.154724,351.473724 
	C487.117950,353.256744 487.690125,355.052368 487.989197,357.231598 
	C484.295319,357.678497 480.593506,357.735962 476.421509,357.317993 
	C474.977539,349.370636 473.434235,341.918213 473.177551,334.421692 
	C472.872833,325.522186 473.755524,316.586578 473.953918,307.662811 
	C474.022705,304.570221 473.274780,301.448853 473.448914,298.371704 
	C473.718018,293.616669 474.924255,288.886566 474.906616,284.148987 
	C474.865356,273.070831 474.332825,261.994476 473.999237,250.917404 
	C481.700623,250.845551 489.401978,250.773697 497.561707,250.815277 
z"/>
<path fill="#C3A136" opacity="1.000000" stroke="none" 
	d="
M599.990234,448.015686 
	C596.210815,461.640808 597.035461,475.598938 597.004944,489.492859 
	C596.980286,500.734344 597.000000,511.975891 597.000000,523.217407 
	C597.000000,533.959473 597.198242,544.706848 596.915161,555.441406 
	C596.776489,560.699524 595.743469,565.934082 595.059326,571.587402 
	C595.003479,571.995483 595.000000,572.001587 594.634216,572.004883 
	C593.176819,572.612122 592.085266,573.215942 590.993713,573.819824 
	C589.852661,574.501831 588.711609,575.183899 587.235352,575.917236 
	C586.366272,574.968323 585.325867,573.944153 585.371887,572.971497 
	C586.996399,538.648254 585.508789,504.308167 585.949463,469.979950 
	C585.987366,467.027008 585.418152,464.052582 584.983215,461.109985 
	C583.902893,453.800598 586.083557,447.161438 589.035034,440.259338 
	C590.167175,440.515991 591.282654,441.171997 592.697754,442.384216 
	C592.864258,448.109863 595.536804,447.765747 598.964417,445.781952 
	C598.980225,445.595001 599.017212,445.221588 599.017212,445.221588 
	C599.362488,445.157227 599.629211,445.273346 599.902161,446.119873 
	C599.988037,447.118439 599.989136,447.567047 599.990234,448.015686 
z"/>
<path fill="#D3BA65" opacity="1.000000" stroke="none" 
	d="
M527.482300,439.930481 
	C527.580261,442.215179 527.070251,444.530212 527.103638,446.837372 
	C527.204468,453.793823 527.760254,460.750000 527.680908,467.701080 
	C527.593323,475.371979 527.020874,483.038300 526.610840,490.703979 
	C526.496338,492.843719 526.003357,494.977203 526.033875,497.108521 
	C526.311829,516.539429 526.581604,535.971375 527.048523,555.398315 
	C527.202515,561.807495 527.923584,568.203064 528.119507,574.846741 
	C522.987976,572.297668 518.122375,569.506714 513.129395,566.027466 
	C518.620239,560.448486 517.510925,554.951050 514.698608,549.110413 
	C514.153259,547.977905 514.666809,546.264709 514.884644,544.848999 
	C515.511963,540.771545 516.774841,536.714172 516.812073,532.640015 
	C516.886902,524.446228 516.034912,516.244995 516.077515,508.049561 
	C516.136230,496.776062 516.767639,485.506836 516.966492,474.232452 
	C517.105408,466.361328 519.490417,457.942657 512.147827,451.602905 
	C511.776764,451.282471 511.954956,450.325989 511.877380,449.665649 
	C516.959167,446.429474 522.040894,443.193329 527.482300,439.930481 
z"/>
<path fill="#E9DD9F" opacity="1.000000" stroke="none" 
	d="
M473.557312,250.802277 
	C474.332825,261.994476 474.865356,273.070831 474.906616,284.148987 
	C474.924255,288.886566 473.718018,293.616669 473.448914,298.371704 
	C473.274780,301.448853 474.022705,304.570221 473.953918,307.662811 
	C473.755524,316.586578 472.872833,325.522186 473.177551,334.421692 
	C473.434235,341.918213 474.977539,349.370636 475.971466,357.211670 
	C471.960205,357.650421 467.928802,357.720123 463.423584,357.314453 
	C462.299896,353.334320 461.102020,349.832153 461.085602,346.324432 
	C460.938446,314.883301 460.999176,283.441193 460.998779,251.999390 
	C461.859833,251.823181 462.720917,251.646973 463.793945,251.212708 
	C467.042389,250.865479 470.078888,250.776306 473.557312,250.802277 
z"/>
<path fill="#CBB04E" opacity="1.000000" stroke="none" 
	d="
M615.412720,555.088440 
	C610.203918,552.301331 609.960876,548.199158 612.230408,543.431580 
	C612.646240,542.558167 612.992310,541.513672 612.934937,540.574707 
	C612.442627,532.516357 611.624756,524.470886 611.380371,516.407166 
	C611.253906,512.235168 612.478638,508.026550 612.398804,503.847778 
	C612.289856,498.148193 611.480652,492.464020 611.063416,486.766541 
	C610.980957,485.641144 610.941650,484.234619 611.514771,483.383606 
	C615.632141,477.270233 616.464783,470.587769 615.439392,463.485443 
	C615.352722,462.885223 615.766663,462.212708 616.004761,461.188324 
	C628.325623,475.349152 633.794189,492.311035 632.768066,511.112152 
	C631.916626,526.714294 627.434692,541.235779 616.536865,553.122498 
	C616.117615,553.579834 615.975464,554.291077 615.412720,555.088440 
z"/>
<path fill="#D7C170" opacity="1.000000" stroke="none" 
	d="
M511.554626,449.791260 
	C511.954956,450.325989 511.776764,451.282471 512.147827,451.602905 
	C519.490417,457.942657 517.105408,466.361328 516.966492,474.232452 
	C516.767639,485.506836 516.136230,496.776062 516.077515,508.049561 
	C516.034912,516.244995 516.886902,524.446228 516.812073,532.640015 
	C516.774841,536.714172 515.511963,540.771545 514.884644,544.848999 
	C514.666809,546.264709 514.153259,547.977905 514.698608,549.110413 
	C517.510925,554.951050 518.620239,560.448486 512.980835,565.725647 
	C508.985596,562.368958 505.011505,558.625793 500.954407,554.560120 
	C504.999268,553.076965 507.242462,551.395325 504.629486,546.522644 
	C503.656616,544.708313 504.964996,541.754211 504.969208,539.319458 
	C505.010040,515.710754 505.138397,492.100281 504.853912,468.494995 
	C504.806519,464.562866 503.292206,460.652985 504.991028,456.340637 
	C507.073456,453.939026 509.152679,451.927948 511.554626,449.791260 
z"/>
<path fill="#F9F5C3" opacity="1.000000" stroke="none" 
	d="
M444.550598,250.845184 
	C436.997223,254.100891 436.923981,254.101608 437.015106,263.358643 
	C437.168823,278.973907 437.562164,294.587891 437.593445,310.202942 
	C437.615845,321.382172 437.010834,332.563812 437.097931,343.741180 
	C437.131958,348.107422 438.293579,352.464874 438.963867,357.195648 
	C434.952423,357.628021 430.918671,357.691101 426.432434,357.641418 
	C425.986176,344.724670 426.208191,331.915863 425.921692,319.118408 
	C425.735199,310.788483 424.774536,302.477264 424.250275,294.152008 
	C424.169891,292.875580 424.702545,291.571594 424.732269,290.275330 
	C424.925049,281.882141 425.080688,273.487885 425.199341,265.093292 
	C425.264984,260.450104 423.466827,255.455536 427.932922,251.314743 
	C433.366241,250.877167 438.730438,250.804123 444.550598,250.845184 
z"/>
<path fill="#D7C170" opacity="1.000000" stroke="none" 
	d="
M512.387634,357.705902 
	C511.571869,357.116913 511.170959,356.219971 510.755676,356.213257 
	C505.232697,356.123993 504.992676,352.324310 504.994690,348.266266 
	C505.005554,326.343353 504.999115,304.420441 504.998779,282.497528 
	C504.998657,274.106659 505.189331,265.709625 504.916748,257.327637 
	C504.785278,253.285309 505.904205,251.324722 510.996765,251.997147 
	C515.239014,251.755417 516.240173,253.674301 515.995300,256.658722 
	C515.684448,260.446167 515.067078,264.229034 515.047607,268.016296 
	C514.949341,287.143372 514.915222,306.272003 515.077637,325.398224 
	C515.109314,329.124817 516.364441,332.827087 516.602478,336.569336 
	C516.906860,341.357513 517.600708,346.385803 516.478210,350.900757 
	C515.801086,353.624084 516.007446,355.448730 516.995056,357.641876 
	C515.595276,357.698486 514.195557,357.755127 512.387634,357.705902 
z"/>
<path fill="#EEE4AB" opacity="1.000000" stroke="none" 
	d="
M460.541016,251.998444 
	C460.999176,283.441193 460.938446,314.883301 461.085602,346.324432 
	C461.102020,349.832153 462.299896,353.334320 462.970703,357.209229 
	C459.289215,357.653778 455.586914,357.728241 451.433014,357.697998 
	C451.026672,353.851471 451.086639,350.109772 451.113800,346.367798 
	C451.157990,340.279266 451.163269,334.190460 451.221344,328.102081 
	C451.243408,325.791565 451.402008,323.482513 451.433533,321.171906 
	C451.471497,318.387543 451.429443,315.602203 451.442505,312.817383 
	C451.454803,310.190521 451.504547,307.563843 451.517822,304.936951 
	C451.531067,302.310211 451.580902,299.681366 451.497528,297.057159 
	C451.439850,295.242706 450.992401,293.428741 451.048065,291.624695 
	C451.301544,283.414642 451.839386,275.210144 451.934692,266.999664 
	C451.989075,262.316559 451.390015,257.625854 451.024048,251.997482 
	C453.634918,251.997482 456.859100,251.997482 460.541016,251.998444 
z"/>
<path fill="#F9F5C3" opacity="1.000000" stroke="none" 
	d="
M397.613861,250.822327 
	C397.439301,253.125656 396.900421,255.310181 396.305878,257.479431 
	C395.916748,258.899292 395.001770,260.325256 395.088715,261.699982 
	C395.515472,268.448090 396.225403,275.177765 396.775330,281.918884 
	C396.936920,283.899414 397.009766,285.899933 396.937653,287.884552 
	C396.670380,295.243805 396.050873,302.601288 396.080109,309.957397 
	C396.115967,318.980865 396.757629,328.000214 396.970764,337.025299 
	C397.125702,343.587280 397.010315,350.155670 397.016418,357.134399 
	C395.919098,357.628784 394.820831,357.709961 393.308289,357.758301 
	C392.103058,356.462433 390.436707,354.999207 390.671906,353.971008 
	C391.717072,349.402252 390.589508,345.459442 388.330383,341.604553 
	C387.843323,340.773438 387.134979,339.515137 387.431915,338.868286 
	C390.150299,332.946533 388.403442,327.559753 386.809601,321.658691 
	C385.889038,318.250427 388.687347,313.924774 389.437988,309.941559 
	C389.817871,307.925812 390.152679,305.216553 389.149475,303.750122 
	C385.776642,298.819855 385.931854,293.449463 385.989319,287.965057 
	C386.048492,282.316132 385.451904,276.595428 386.164703,271.037292 
	C386.814758,265.968353 388.845032,261.078064 390.242188,256.102081 
	C390.549286,255.008423 390.751678,253.885361 391.343140,252.382874 
	C392.457672,251.640472 393.231384,251.291046 394.005066,250.941620 
	C395.078705,250.860092 396.152313,250.778549 397.613861,250.822327 
z"/>
<path fill="#FDF9CC" opacity="1.000000" stroke="none" 
	d="
M757.447754,357.643738 
	C757.353210,349.679352 757.712830,341.819702 758.045166,333.958832 
	C758.349487,326.760162 758.853760,319.560242 758.852722,312.360901 
	C758.851501,303.829895 758.186218,295.298401 758.208191,286.768127 
	C758.232056,277.495300 758.673706,268.222137 759.026733,258.952637 
	C759.114014,256.660065 759.563110,254.381287 760.316223,251.661896 
	C761.534485,251.084381 762.282471,250.941132 763.030396,250.797882 
	C766.187256,250.022278 766.046936,252.032959 766.037109,254.185455 
	C765.988037,264.981323 766.014465,275.777557 766.014832,286.573669 
	C766.015564,308.498077 766.016663,330.422455 766.017578,352.346863 
	C766.017639,353.981812 766.017578,355.616760 766.017578,357.747955 
	C763.092712,357.747955 760.491394,357.747955 757.447754,357.643738 
z"/>
<path fill="#D3BA65" opacity="1.000000" stroke="none" 
	d="
M517.454102,357.740234 
	C516.007446,355.448730 515.801086,353.624084 516.478210,350.900757 
	C517.600708,346.385803 516.906860,341.357513 516.602478,336.569336 
	C516.364441,332.827087 515.109314,329.124817 515.077637,325.398224 
	C514.915222,306.272003 514.949341,287.143372 515.047607,268.016296 
	C515.067078,264.229034 515.684448,260.446167 515.995300,256.658722 
	C516.240173,253.674301 515.239014,251.755417 511.434143,251.997147 
	C511.020477,251.819382 511.012848,251.640762 510.999329,251.194031 
	C523.748291,250.847412 536.503113,250.768921 549.645142,250.813843 
	C550.016296,251.107788 550.000305,251.278320 549.528931,251.708725 
	C546.381531,251.982086 543.689514,251.995575 540.547913,252.004791 
	C537.400452,252.002396 534.702698,252.004257 531.544067,252.003540 
	C528.752869,252.004852 526.417419,251.921463 524.094543,252.056198 
	C523.184570,252.108994 521.620605,252.505081 521.516296,252.993134 
	C520.675415,256.927002 519.943542,260.902618 519.528503,264.901855 
	C519.293213,267.169159 519.786987,269.503571 519.825928,271.809875 
	C519.883789,275.231049 519.847412,278.654236 519.816589,282.076263 
	C519.797180,284.225342 519.691956,286.373627 519.665466,288.522736 
	C519.629211,291.463867 519.610901,294.405609 519.623108,297.346893 
	C519.632751,299.656555 519.780823,301.967834 519.727478,304.275146 
	C519.549194,311.985260 519.173218,319.693115 519.127808,327.403351 
	C519.079224,335.662384 519.186951,343.929260 519.569214,352.176819 
	C519.629944,353.486633 521.341614,355.597351 522.552368,355.804443 
	C525.625793,356.330139 528.848022,355.985626 532.459351,355.991333 
	C535.602051,355.997406 538.296143,356.001678 540.994751,356.003601 
	C540.999329,356.001221 540.999268,356.008453 541.287598,356.289185 
	C544.347046,356.706604 547.118164,356.843353 549.889282,356.980103 
	C567.318604,357.005249 584.747864,357.030426 603.079285,357.045959 
	C606.032959,357.003540 608.084473,356.970703 610.136047,356.937897 
	C611.199890,357.043549 612.263672,357.149231 613.602661,357.415710 
	C591.721252,357.652802 569.564697,357.735870 547.408142,357.802307 
	C537.576538,357.831787 527.744873,357.827545 517.454102,357.740234 
z"/>
<path fill="#F2EAB6" opacity="1.000000" stroke="none" 
	d="
M730.032349,779.209106 
	C740.346191,776.200745 749.882446,777.221619 756.898743,786.072815 
	C763.332764,794.189392 763.837158,803.583740 759.412231,812.749634 
	C754.756714,822.392944 746.229980,825.670105 735.728699,824.680725 
	C736.849304,824.029968 738.155151,823.694946 739.763062,823.282410 
	C738.033569,820.155762 731.375549,821.986267 733.832275,816.257202 
	C740.827209,818.154114 746.525696,816.428345 750.641846,811.199219 
	C754.879150,805.816162 755.150330,799.607178 751.951294,793.529236 
	C748.338501,786.665161 741.924133,785.627686 734.991272,785.502380 
	C734.988647,783.386475 734.994812,781.693420 735.117920,779.947998 
	C735.234863,779.895691 735.256592,779.584595 735.256592,779.584595 
	C735.256592,779.584595 734.999573,779.998840 734.624146,780.008301 
	C732.843323,779.748230 731.437805,779.478638 730.032349,779.209106 
z"/>
<path fill="#D7C170" opacity="1.000000" stroke="none" 
	d="
M501.951813,786.847290 
	C503.312073,783.795410 504.672302,780.743469 506.032562,777.691589 
	C506.544678,777.678894 507.056793,777.666260 507.568939,777.653564 
	C514.507324,792.799927 521.445679,807.946289 528.610413,823.586853 
	C523.850891,824.091431 519.776672,825.319153 517.899170,819.773865 
	C517.608521,818.915405 515.804504,818.569275 514.024658,817.665649 
	C510.923157,816.911926 508.511353,816.246704 506.068176,816.098389 
	C502.172638,815.862000 500.953949,813.633118 501.402100,810.142883 
	C503.183289,810.184570 504.552795,810.262634 505.749420,810.531738 
	C505.401154,811.090149 505.225739,811.457397 505.050354,811.824646 
	C506.366180,811.336121 507.682007,810.847595 509.393616,810.263550 
	C510.851013,810.009888 511.912659,809.851685 513.456116,809.621643 
	C511.203247,804.834229 509.157104,800.486145 506.884735,795.657227 
	C505.272888,798.632507 504.093048,800.810303 502.520172,802.987305 
	C500.508301,802.668396 498.889465,802.350403 496.784698,801.936951 
	C499.508820,796.672241 503.445831,792.611145 501.951813,786.847290 
z"/>
<path fill="#FDF9CC" opacity="1.000000" stroke="none" 
	d="
M435.094849,821.034119 
	C427.328583,825.973206 418.769257,823.300476 410.271973,824.047913 
	C410.271973,808.897095 410.271973,794.197876 410.271973,779.050110 
	C416.260406,779.050110 422.168732,779.050110 428.523254,779.535889 
	C428.062225,784.388855 423.624634,784.035034 420.556824,786.136841 
	C419.447571,787.672729 418.165466,789.071167 418.096008,790.527466 
	C417.843170,795.828796 417.995880,801.149414 417.995544,806.462769 
	C417.994843,817.238708 417.994781,817.238708 429.072205,816.092957 
	C431.173645,817.951538 433.134247,819.492859 435.094849,821.034119 
z"/>
<path fill="#D3BA65" opacity="1.000000" stroke="none" 
	d="
M287.742920,250.368652 
	C288.079559,250.728241 288.064667,250.981201 287.740356,251.924683 
	C287.288452,254.093872 287.021332,255.572540 287.021271,257.051208 
	C287.014893,414.662476 287.028564,572.273743 287.030334,730.124634 
	C287.019562,730.364319 287.006989,730.844055 287.006989,730.844055 
	C286.656555,729.389832 285.999664,727.935669 285.999207,726.481384 
	C285.952759,569.444885 285.950958,412.408325 286.014862,255.371841 
	C286.015533,253.668365 286.912689,251.965271 287.742920,250.368652 
z"/>
<path fill="#E9DD9F" opacity="1.000000" stroke="none" 
	d="
M729.681824,779.210571 
	C731.437805,779.478638 732.843323,779.748230 734.624390,780.008911 
	C735.000000,780.000000 735.001038,780.000366 735.001038,780.000366 
	C734.994812,781.693420 734.988647,783.386475 734.692993,785.693237 
	C729.313843,788.022339 725.420410,790.901978 723.819397,796.380066 
	C721.495972,804.329834 723.985535,810.463379 732.180908,816.152710 
	C732.655579,816.300110 732.966003,816.252075 733.308838,816.197144 
	C733.341370,816.190186 733.406677,816.202087 733.406677,816.202087 
	C731.375549,821.986267 738.033569,820.155762 739.763062,823.282410 
	C738.155151,823.694946 736.849304,824.029968 735.285278,824.598145 
	C718.510559,820.147217 711.685608,809.012451 716.028748,793.691284 
	C718.019409,786.668945 722.628906,781.954773 729.681824,779.210571 
z"/>
<path fill="#F2EAB6" opacity="1.000000" stroke="none" 
	d="
M435.386810,821.027588 
	C433.134247,819.492859 431.173645,817.951538 429.273682,815.825439 
	C435.446564,812.486511 438.114655,807.613342 438.016388,801.065063 
	C437.927307,795.125610 435.515381,790.384644 430.003296,787.969482 
	C427.230743,786.754700 423.976715,786.638733 420.940430,786.025940 
	C423.624634,784.035034 428.062225,784.388855 428.979370,779.649597 
	C446.585693,783.697144 452.575226,802.511230 440.338379,816.876099 
	C436.341461,815.680176 435.662811,816.908447 436.975464,819.940552 
	C436.543243,820.300659 436.110992,820.660828 435.386810,821.027588 
z"/>
<path fill="#BE9B2E" opacity="1.000000" stroke="none" 
	d="
M575.856812,814.971741 
	C579.172607,815.383850 582.478516,815.940674 585.806946,816.167908 
	C589.240723,816.402283 592.696411,816.315857 596.126343,816.696472 
	C594.156433,822.973083 594.156433,822.974609 585.946167,822.986572 
	C581.800049,822.992554 577.643311,822.809265 573.511108,823.050232 
	C570.022522,823.253723 568.894714,821.976868 568.949585,818.498230 
	C569.124939,807.389465 569.190918,796.271423 568.901306,785.167358 
	C568.812134,781.752014 569.919373,779.988342 572.975525,779.101929 
	C573.423035,779.048340 573.870544,778.994751 574.649292,779.510498 
	C574.982239,788.817139 574.913269,797.555298 575.025635,806.291138 
	C575.062866,809.187744 575.566467,812.078369 575.856812,814.971741 
z"/>
<path fill="#D1B760" opacity="1.000000" stroke="none" 
	d="
M652.964783,786.892944 
	C642.237427,794.721741 641.302795,806.136292 650.878418,815.001953 
	C652.923157,816.965454 654.810120,818.228210 657.796448,820.226685 
	C655.495972,820.709229 653.971497,820.865967 652.577026,821.377197 
	C651.601196,821.734924 650.802917,822.577087 649.925415,823.203003 
	C641.396057,820.336121 637.277405,813.657654 636.167114,805.431641 
	C634.768555,795.069458 637.699951,786.073120 647.884644,780.644653 
	C647.991028,782.738708 647.609253,784.594849 647.176025,786.700989 
	C647.753418,786.570068 648.769836,786.144165 649.777283,786.164612 
	C650.844299,786.186157 651.902649,786.632263 652.964783,786.892944 
z"/>
<path fill="#D7C170" opacity="1.000000" stroke="none" 
	d="
M650.198486,823.476196 
	C650.802917,822.577087 651.601196,821.734924 652.577026,821.377197 
	C653.971497,820.865967 655.495972,820.709229 657.796448,820.226685 
	C654.810120,818.228210 652.923157,816.965454 651.031250,815.304077 
	C653.394531,815.597900 655.725586,816.680115 658.138000,816.910522 
	C665.619385,817.625061 667.518799,815.345215 666.269897,807.566772 
	C663.001831,807.003052 659.529297,806.843750 656.503906,805.598328 
	C655.661865,805.251648 656.143433,801.689941 655.998047,799.276489 
	C662.410156,799.276489 668.323669,799.276489 674.944458,799.276489 
	C674.944458,805.703674 675.077759,812.122559 674.815186,818.525146 
	C674.770569,819.612183 673.206116,820.932922 672.036255,821.628906 
	C665.212158,825.688782 657.954834,826.033691 650.198486,823.476196 
z"/>
<path fill="#D3BA65" opacity="1.000000" stroke="none" 
	d="
M663.968262,356.004883 
	C663.992310,356.363159 664.016357,356.721466 664.029480,357.348907 
	C648.679443,357.681946 633.340393,357.745819 617.549194,357.709473 
	C625.749573,357.070618 634.402222,356.531982 643.987671,355.995361 
	C647.419067,355.998962 649.926086,355.870331 652.414185,356.031952 
	C656.407715,356.291382 659.198303,355.842499 657.216614,350.655518 
	C656.656433,349.189178 657.012878,347.358887 657.010254,345.695404 
	C656.962097,315.288818 656.946350,284.882050 656.761169,254.476349 
	C656.756104,253.648407 654.996399,252.204285 653.969238,252.122452 
	C650.327881,251.832321 646.649231,252.009048 642.984741,252.008881 
	C638.303223,252.003860 633.621765,251.998840 628.224243,251.993256 
	C627.341248,251.990662 627.174255,251.988617 627.002197,251.724380 
	C626.990662,251.287476 626.984314,251.112762 626.977905,250.938034 
	C638.402344,250.833633 649.826843,250.729248 661.630798,250.766052 
	C662.004883,251.088791 661.999390,251.270340 661.574951,251.743134 
	C660.434875,253.783813 659.093933,255.530212 659.085449,257.283081 
	C658.952942,284.604187 658.991577,311.926117 658.993958,339.247864 
	C658.994324,343.079437 658.825012,346.923706 659.083069,350.738464 
	C659.275940,353.589355 659.816833,356.603241 663.968262,356.004883 
z"/>
<path fill="#F6E99C" opacity="1.000000" stroke="none" 
	d="
M368.190704,784.083862 
	C368.190125,797.498962 368.190125,810.421082 368.190125,823.677734 
	C365.490051,823.677734 363.090057,823.677734 360.342896,823.677734 
	C360.342896,809.007629 360.342896,794.192444 360.342896,779.093445 
	C362.861176,779.093445 365.251831,779.093445 367.949219,779.093445 
	C368.035492,780.696533 368.113403,782.143677 368.190704,784.083862 
z"/>
<path fill="#EFCF39" opacity="1.000000" stroke="none" 
	d="
M298.748535,789.912659 
	C298.799286,792.001892 298.850067,794.091187 298.617493,796.832764 
	C296.819916,799.858887 298.144470,800.946106 300.186188,801.909912 
	C301.196320,802.386780 302.007385,803.285095 302.908478,803.992798 
	C302.023834,804.734253 301.079071,805.416931 300.276276,806.238403 
	C299.762390,806.764221 299.458008,807.494873 299.059662,808.133667 
	C299.013733,808.570801 298.967834,809.007996 298.611176,810.094849 
	C298.205261,813.389954 298.427399,816.103394 297.881012,818.652100 
	C297.607788,819.926392 295.931335,820.899963 294.889587,822.009521 
	C293.918488,820.995911 292.118469,819.995239 292.102509,818.966858 
	C291.912018,806.686157 291.969574,794.401184 292.034729,782.117737 
	C292.038605,781.388245 292.660278,780.662109 293.462128,779.955139 
	C298.365448,779.992126 302.813324,779.825500 307.230255,780.121277 
	C308.830750,780.228455 310.357208,781.441345 311.917450,782.149719 
	C311.738770,782.769714 311.560089,783.389709 311.381409,784.009705 
	C309.303406,784.009705 307.194794,783.791260 305.156860,784.076965 
	C303.445587,784.316895 301.816711,785.144409 299.825012,785.841492 
	C299.248657,787.285034 298.998596,788.598877 298.748535,789.912659 
z"/>
<path fill="#DFCB80" opacity="1.000000" stroke="none" 
	d="
M501.632385,787.029053 
	C503.445831,792.611145 499.508820,796.672241 496.784698,801.936951 
	C498.889465,802.350403 500.508301,802.668396 502.505676,803.331055 
	C502.252930,805.843567 501.621643,808.011353 500.990356,810.179199 
	C500.953949,813.633118 502.172638,815.862000 506.068176,816.098389 
	C508.511353,816.246704 510.923157,816.911926 513.651367,817.576904 
	C510.463348,817.871887 506.970825,818.041931 503.483276,817.970337 
	C499.441010,817.887329 495.888428,817.714172 493.699921,822.572815 
	C493.009979,824.104553 488.525940,823.927246 484.663788,824.777466 
	C490.573578,811.442749 495.943268,799.326721 501.632385,787.029053 
z"/>
<path fill="#D7C170" opacity="1.000000" stroke="none" 
	d="
M653.376404,786.892273 
	C651.902649,786.632263 650.844299,786.186157 649.777283,786.164612 
	C648.769836,786.144165 647.753418,786.570068 647.176025,786.700989 
	C647.609253,784.594849 647.991028,782.738708 648.208984,780.575806 
	C656.549927,776.153687 664.643433,777.127808 672.997131,782.191589 
	C671.515442,784.480591 670.229004,786.467834 668.942566,788.455139 
	C668.818298,787.933960 668.694092,787.412781 668.569824,786.891602 
	C663.642578,786.891602 658.715271,786.891602 653.376404,786.892273 
z"/>
<path fill="#D9C266" opacity="1.000000" stroke="none" 
	d="
M292.994446,779.934387 
	C292.660278,780.662109 292.038605,781.388245 292.034729,782.117737 
	C291.969574,794.401184 291.912018,806.686157 292.102509,818.966858 
	C292.118469,819.995239 293.918488,820.995911 294.889587,822.009521 
	C295.931335,820.899963 297.607788,819.926392 297.881012,818.652100 
	C298.427399,816.103394 298.205261,813.389954 298.524048,810.412781 
	C298.747620,814.533203 298.747620,818.985413 298.747620,823.742310 
	C296.119568,823.742310 293.709473,823.742310 291.046783,823.742310 
	C291.046783,808.978821 291.046783,794.233398 291.046783,778.795349 
	C299.744812,778.795349 308.482086,778.795349 317.144836,778.962280 
	C309.045013,779.397583 301.019745,779.665955 292.994446,779.934387 
z"/>
<path fill="#D9C266" opacity="1.000000" stroke="none" 
	d="
M299.514374,808.037231 
	C299.458008,807.494873 299.762390,806.764221 300.276276,806.238403 
	C301.079071,805.416931 302.023834,804.734253 302.908478,803.992798 
	C302.007385,803.285095 301.196320,802.386780 300.186188,801.909912 
	C298.144470,800.946106 296.819916,799.858887 298.547852,797.275024 
	C299.954010,798.025146 301.087311,799.709961 302.349762,799.813049 
	C306.603546,800.160339 310.903198,799.945251 315.065338,799.945251 
	C316.773987,807.264526 316.376282,807.760803 309.423676,807.794739 
	C306.271973,807.810059 303.120605,807.890076 299.514374,808.037231 
z"/>
<path fill="#F3DB5E" opacity="1.000000" stroke="none" 
	d="
M293.462128,779.955139 
	C301.019745,779.665955 309.045013,779.397583 317.535461,779.064270 
	C318.000641,778.999390 318.000000,779.000000 318.088745,779.158447 
	C318.468475,779.224304 318.759460,779.131714 319.050446,779.039124 
	C319.386780,781.096985 319.723083,783.154907 319.639038,785.559692 
	C319.218689,785.906616 318.890289,786.041443 318.890289,786.041443 
	C318.558533,786.138611 318.226776,786.235718 317.150574,786.149536 
	C310.987854,785.881348 305.569580,785.796509 300.151337,785.711731 
	C301.816711,785.144409 303.445587,784.316895 305.156860,784.076965 
	C307.194794,783.791260 309.303406,784.009705 311.381409,784.009705 
	C311.560089,783.389709 311.738770,782.769714 311.917450,782.149719 
	C310.357208,781.441345 308.830750,780.228455 307.230255,780.121277 
	C302.813324,779.825500 298.365448,779.992126 293.462128,779.955139 
z"/>
<path fill="#C9AA49" opacity="1.000000" stroke="none" 
	d="
M572.540649,779.025146 
	C569.919373,779.988342 568.812134,781.752014 568.901306,785.167358 
	C569.190918,796.271423 569.124939,807.389465 568.949585,818.498230 
	C568.894714,821.976868 570.022522,823.253723 573.511108,823.050232 
	C577.643311,822.809265 581.800049,822.992554 585.946167,822.986572 
	C594.156433,822.974609 594.156433,822.973083 596.388428,816.985840 
	C596.966980,819.026611 597.267212,821.104797 597.626404,823.591187 
	C587.758667,823.591187 578.228821,823.591187 568.015991,823.591187 
	C568.015991,818.598267 568.016479,813.518311 568.015869,808.438416 
	C568.014832,799.964050 568.150574,791.486267 567.941895,783.017029 
	C567.861755,779.765564 568.805115,778.355225 572.540649,779.025146 
z"/>
<path fill="#DDC870" opacity="1.000000" stroke="none" 
	d="
M287.471924,730.904419 
	C287.006989,730.844055 287.019562,730.364319 287.487000,730.178589 
	C291.976562,729.998047 295.998657,730.003296 300.020752,730.008545 
	C304.043518,730.005188 308.066315,730.001953 313.019348,730.000732 
	C319.965607,729.999390 325.981567,729.996033 331.997559,729.992676 
	C336.351837,729.996643 340.706146,730.000610 345.523499,729.996826 
	C349.017334,730.000732 352.048096,730.012329 355.531128,730.013184 
	C355.983429,730.002441 356.004211,730.414307 356.009247,730.620422 
	C333.321808,730.872620 310.629364,730.918762 287.471924,730.904419 
z"/>
<path fill="#C2A33E" opacity="1.000000" stroke="none" 
	d="
M575.909790,814.507202 
	C575.566467,812.078369 575.062866,809.187744 575.025635,806.291138 
	C574.913269,797.555298 574.982239,788.817139 574.972595,779.622559 
	C575.308777,780.642090 575.939453,782.116882 575.950623,783.596252 
	C576.027222,793.744507 575.974060,803.893799 575.909790,814.507202 
z"/>
<path fill="#CFB75B" opacity="1.000000" stroke="none" 
	d="
M626.524719,250.812805 
	C626.984314,251.112762 626.990662,251.287476 626.533081,251.729706 
	C620.050110,251.997757 614.031189,251.998260 608.012207,251.998779 
	C607.133423,251.810211 606.254639,251.621658 605.157227,251.168472 
	C611.982849,250.831772 619.027222,250.759689 626.524719,250.812805 
z"/>
<path fill="#D9C266" opacity="1.000000" stroke="none" 
	d="
M299.825012,785.841492 
	C305.569580,785.796509 310.987854,785.881348 316.904053,786.051880 
	C312.466888,786.253662 307.518494,786.204529 302.605560,786.597839 
	C301.319275,786.700806 300.143036,788.178223 298.832397,789.468506 
	C298.998596,788.598877 299.248657,787.285034 299.825012,785.841492 
z"/>
<path fill="#C6A841" opacity="1.000000" stroke="none" 
	d="
M598.948608,445.968872 
	C595.536804,447.765747 592.864258,448.109863 592.995728,442.533356 
	C594.568726,442.812286 596.143372,443.498291 597.971375,444.711243 
	C598.466003,445.481750 598.707336,445.725311 598.948608,445.968872 
z"/>
<path fill="#D3BA65" opacity="1.000000" stroke="none" 
	d="
M312.966003,251.719208 
	C310.365082,251.686508 307.797577,251.403519 305.069061,250.788925 
	C307.339905,250.371872 309.771729,250.286438 312.640198,250.334213 
	C313.051056,250.801270 313.025238,251.135101 312.966003,251.719208 
z"/>
<path fill="#CBB04E" opacity="1.000000" stroke="none" 
	d="
M611.060852,455.621338 
	C609.103027,454.179932 607.074158,452.401154 605.060791,450.253876 
	C607.047424,451.684906 609.018616,453.484436 611.060852,455.621338 
z"/>
<path fill="#C2A33E" opacity="1.000000" stroke="none" 
	d="
M562.412231,581.830322 
	C562.009888,581.367981 562.002930,580.979126 561.995544,580.298828 
	C564.440125,580.117432 566.885193,580.227478 569.642090,580.572388 
	C567.571899,581.172852 565.189758,581.538391 562.412231,581.830322 
z"/>
<path fill="#FDF9CC" opacity="1.000000" stroke="none" 
	d="
M437.293732,819.881348 
	C435.662811,816.908447 436.341461,815.680176 440.044617,817.019897 
	C439.445862,818.031555 438.528931,818.926819 437.293732,819.881348 
z"/>
<path fill="#C6A841" opacity="1.000000" stroke="none" 
	d="
M591.321411,573.882202 
	C592.085266,573.215942 593.176819,572.612122 594.630371,572.005005 
	C593.877930,572.649414 592.763489,573.297058 591.321411,573.882202 
z"/>
<path fill="#CBB04E" opacity="1.000000" stroke="none" 
	d="
M600.350220,448.011414 
	C599.989136,447.567047 599.988037,447.118439 599.988586,446.333405 
	C600.850586,446.507996 601.710999,447.019012 602.719116,447.793121 
	C602.147949,448.039886 601.429077,448.023529 600.350220,448.011414 
z"/>
<path fill="#D3BA65" opacity="1.000000" stroke="none" 
	d="
M762.765625,250.650940 
	C762.282471,250.941132 761.534485,251.084381 760.400757,251.271210 
	C759.817566,251.250229 759.620056,251.185669 759.160400,250.955048 
	C760.099060,250.694000 761.299927,250.598999 762.765625,250.650940 
z"/>
<path fill="#FDF9CC" opacity="1.000000" stroke="none" 
	d="
M393.657471,250.793732 
	C393.231384,251.291046 392.457672,251.640472 391.345032,251.993713 
	C391.023529,251.776093 391.040985,251.554657 391.083374,251.000977 
	C391.842194,250.661102 392.576050,250.653488 393.657471,250.793732 
z"/>
<path fill="#E9DB8B" opacity="1.000000" stroke="none" 
	d="
M679.251831,357.682129 
	C679.308105,357.476257 679.612183,357.346680 679.955627,357.411011 
	C679.829895,357.656128 679.664734,357.707275 679.251831,357.682129 
z"/>
<path fill="#F9F5C3" opacity="1.000000" stroke="none" 
	d="
M738.674072,250.839645 
	C738.435486,251.096664 737.868347,251.245438 737.149902,251.175110 
	C737.447510,250.881134 737.896545,250.806274 738.674072,250.839645 
z"/>
<path fill="#D9C266" opacity="1.000000" stroke="none" 
	d="
M318.791870,778.930786 
	C318.759460,779.131714 318.468475,779.224304 318.089417,779.158142 
	C318.178619,778.940369 318.355957,778.881409 318.791870,778.930786 
z"/>
<path fill="#D9C266" opacity="1.000000" stroke="none" 
	d="
M318.964905,786.141724 
	C318.890289,786.041443 319.218689,785.906616 319.396484,785.913696 
	C319.525757,786.192871 319.347504,786.299927 318.964905,786.141724 
z"/>
<path fill="#F6E99C" opacity="1.000000" stroke="none" 
	d="
M391.277649,730.845825 
	C391.181549,730.441223 391.418365,730.324585 391.846008,730.541748 
	C391.942963,730.658142 391.516663,730.916443 391.277649,730.845825 
z"/>
<path fill="#CBB04E" opacity="1.000000" stroke="none" 
	d="
M615.222900,459.641998 
	C615.018066,459.734283 614.674683,459.566376 614.177002,459.151123 
	C614.376648,459.063080 614.730408,459.222443 615.222900,459.641998 
z"/>
<path fill="#CBB04E" opacity="1.000000" stroke="none" 
	d="
M614.012268,458.708557 
	C613.817078,458.767670 613.538208,458.569885 613.145508,458.137939 
	C613.330688,458.086395 613.629639,458.269012 614.012268,458.708557 
z"/>
<path fill="#CBB04E" opacity="1.000000" stroke="none" 
	d="
M613.011475,457.709198 
	C612.815552,457.762787 612.535706,457.557373 612.145691,457.112122 
	C612.332886,457.064911 612.630188,457.257538 613.011475,457.709198 
z"/>
<path fill="#CBB04E" opacity="1.000000" stroke="none" 
	d="
M605.031982,449.702850 
	C604.836243,449.777954 604.551147,449.598724 604.141235,449.196655 
	C604.325073,449.132080 604.633911,449.290283 605.031982,449.702850 
z"/>
<path fill="#CBB04E" opacity="1.000000" stroke="none" 
	d="
M603.926514,448.756958 
	C603.729736,448.879791 603.470886,448.715973 603.112305,448.305542 
	C603.339478,448.088257 603.623474,448.225372 603.926514,448.756958 
z"/>
<path fill="#CBB04E" opacity="1.000000" stroke="none" 
	d="
M598.964417,445.781921 
	C598.707336,445.725311 598.466003,445.481750 598.147095,444.987335 
	C598.241516,444.789673 598.413452,444.842834 598.801270,445.058777 
	C599.017212,445.221588 598.980225,445.595001 598.964417,445.781921 
z"/>
<path fill="#F3DB5E" opacity="1.000000" stroke="none" 
	d="
M331.943115,729.610046 
	C325.981567,729.996033 319.965607,729.999390 313.483337,729.995239 
	C313.010834,570.973450 313.004578,411.959076 312.996765,252.477158 
	C317.494324,252.010437 321.995789,252.098053 326.491913,251.981628 
	C329.484100,251.904144 330.226959,253.257050 329.842621,256.001160 
	C329.407471,259.108185 329.035492,262.256683 329.034698,265.387238 
	C328.996307,413.695038 328.965790,562.002869 329.123444,710.310486 
	C329.130157,716.617126 330.926208,722.921753 331.943115,729.610046 
z"/>
<path fill="#EFCF39" opacity="1.000000" stroke="none" 
	d="
M300.013184,729.560913 
	C295.998657,730.003296 291.976562,729.998047 287.497772,729.938904 
	C287.028564,572.273743 287.014893,414.662476 287.021271,257.051208 
	C287.021332,255.572540 287.288452,254.093872 287.705750,252.303207 
	C298.997253,252.020523 299.022156,252.020584 298.995056,263.011230 
	C298.667969,395.795776 298.262543,528.580200 298.068054,661.364990 
	C298.034973,683.953613 296.617462,706.611023 300.013184,729.560913 
z"/>
<path fill="#BE9B2E" opacity="1.000000" stroke="none" 
	d="
M561.367554,320.394226 
	C561.674622,317.977142 561.972961,315.999329 561.976807,314.020905 
	C562.012695,295.624878 561.993530,277.228790 561.999939,258.832703 
	C562.002319,252.022079 562.013916,252.015305 569.025635,252.005753 
	C574.517639,251.998260 580.010986,252.084625 585.500977,251.980927 
	C588.082397,251.932175 589.570801,253.065964 588.931030,255.502762 
	C586.741577,263.843140 589.735107,271.901642 589.854797,280.079712 
	C589.962708,287.455597 587.605286,295.021088 588.601807,302.187805 
	C589.625183,309.547913 590.482971,316.426239 588.450989,323.726990 
	C587.513245,327.096252 588.155701,330.972076 588.422119,334.593201 
	C588.772278,339.351868 589.782959,344.076447 589.920654,348.832733 
	C590.110291,355.383118 589.287964,355.989441 582.905090,355.997070 
	C577.080261,356.004059 571.255127,355.958801 565.430725,356.007477 
	C562.908813,356.028595 562.170593,355.225098 562.222595,352.444458 
	C562.364319,344.871735 561.957458,337.287506 561.716492,329.709473 
	C561.622375,326.748474 561.391052,323.791840 561.367554,320.394226 
z"/>
<path fill="#CBB04E" opacity="1.000000" stroke="none" 
	d="
M608.007935,252.404510 
	C614.031189,251.998260 620.050110,251.997757 626.538208,251.991913 
	C627.174255,251.988617 627.341248,251.990662 627.758789,251.993958 
	C627.641296,258.534149 628.353027,265.378662 626.612488,271.529205 
	C624.736450,278.158569 626.094055,284.311676 626.488770,290.639954 
	C626.700562,294.035950 627.969666,297.364868 628.743469,300.728241 
	C628.854187,301.209412 629.011902,301.753082 628.895630,302.202576 
	C624.779968,318.108673 627.785767,334.292084 627.156616,350.331146 
	C626.971436,355.051331 625.609131,356.429871 621.142517,356.079346 
	C617.695068,355.808807 614.191284,356.256439 610.424316,356.661316 
	C608.084473,356.970703 606.032959,357.003540 603.555054,357.011536 
	C604.811523,356.450073 606.494263,355.913361 608.603027,355.240784 
	C608.713318,354.262329 609.017761,352.981384 608.974731,351.712189 
	C608.702209,343.673950 608.055298,335.636810 608.094788,327.602112 
	C608.162903,313.736847 608.880371,299.872864 608.833801,286.009979 
	C608.814575,280.279053 607.813049,274.497192 606.721863,268.842010 
	C605.909302,264.630920 603.827026,260.644257 607.429077,256.656464 
	C608.152832,255.855209 607.839050,254.116653 608.007935,252.404510 
z"/>
<path fill="#C9AA49" opacity="1.000000" stroke="none" 
	d="
M540.997559,252.009064 
	C543.689514,251.995575 546.381531,251.982086 549.519714,251.965485 
	C549.644775,283.404541 549.295410,314.846466 549.048645,346.289215 
	C549.025452,349.242981 549.648743,352.201843 549.534058,355.580383 
	C546.397217,356.004456 543.698242,356.006439 540.999268,356.008453 
	C540.999268,356.008453 540.999329,356.001221 540.998474,355.538879 
	C540.997620,320.720734 540.997620,286.364899 540.997559,252.009064 
z"/>
<path fill="#CBB04E" opacity="1.000000" stroke="none" 
	d="
M541.287598,356.289185 
	C543.698242,356.006439 546.397217,356.004456 549.545654,356.003052 
	C549.995117,356.003662 549.968384,356.494659 549.928833,356.737366 
	C547.118164,356.843353 544.347046,356.706604 541.287598,356.289185 
z"/>
<path fill="#D9C266" opacity="1.000000" stroke="none" 
	d="
M643.040283,252.392883 
	C646.649231,252.009048 650.327881,251.832321 653.969238,252.122452 
	C654.996399,252.204285 656.756104,253.648407 656.761169,254.476349 
	C656.946350,284.882050 656.962097,315.288818 657.010254,345.695404 
	C657.012878,347.358887 656.656433,349.189178 657.216614,350.655518 
	C659.198303,355.842499 656.407715,356.291382 652.414185,356.031952 
	C649.926086,355.870331 647.419067,355.998962 644.453674,355.994995 
	C644.321411,334.740936 644.914062,313.488739 644.878967,292.237610 
	C644.862122,282.001465 643.614441,271.769989 643.028564,261.530426 
	C642.862183,258.623383 643.063293,255.695312 643.040283,252.392883 
z"/>
<path fill="#DDC870" opacity="1.000000" stroke="none" 
	d="
M664.394104,356.003906 
	C659.816833,356.603241 659.275940,353.589355 659.083069,350.738464 
	C658.825012,346.923706 658.994324,343.079437 658.993958,339.247864 
	C658.991577,311.926117 658.952942,284.604187 659.085449,257.283081 
	C659.093933,255.530212 660.434875,253.783813 661.565796,252.015411 
	C664.754700,251.996445 667.533752,251.996445 669.729858,251.996445 
	C669.729858,286.768677 669.729858,320.958527 669.729858,355.684113 
	C668.001221,355.796326 666.410583,355.899628 664.394104,356.003906 
z"/>
<path fill="#DDC870" opacity="1.000000" stroke="none" 
	d="
M674.462097,252.523529 
	C674.438049,252.479797 674.486145,252.567276 674.462097,252.523529 
z"/>
<path fill="#D1B760" opacity="1.000000" stroke="none" 
	d="
M532.010681,355.989563 
	C528.848022,355.985626 525.625793,356.330139 522.552368,355.804443 
	C521.341614,355.597351 519.629944,353.486633 519.569214,352.176819 
	C519.186951,343.929260 519.079224,335.662384 519.127808,327.403351 
	C519.173218,319.693115 519.549194,311.985260 519.727478,304.275146 
	C519.780823,301.967834 519.632751,299.656555 519.623108,297.346893 
	C519.610901,294.405609 519.629211,291.463867 519.665466,288.522736 
	C519.691956,286.373627 519.797180,284.225342 519.816589,282.076263 
	C519.847412,278.654236 519.883789,275.231049 519.825928,271.809875 
	C519.786987,269.503571 519.293213,267.169159 519.528503,264.901855 
	C519.943542,260.902618 520.675415,256.927002 521.516296,252.993134 
	C521.620605,252.505081 523.184570,252.108994 524.094543,252.056198 
	C526.417419,251.921463 528.752869,252.004852 531.543701,252.442490 
	C532.336121,261.332184 532.905945,269.779022 532.954529,278.228851 
	C533.087585,301.363159 533.034668,324.498871 532.958130,347.633667 
	C532.948914,350.419983 532.341064,353.204315 532.010681,355.989563 
z"/>
<path fill="#CBB04E" opacity="1.000000" stroke="none" 
	d="
M532.459351,355.991333 
	C532.341064,353.204315 532.948914,350.419983 532.958130,347.633667 
	C533.034668,324.498871 533.087585,301.363159 532.954529,278.228851 
	C532.905945,269.779022 532.336121,261.332184 532.004456,252.445053 
	C534.702698,252.004257 537.400452,252.002396 540.547913,252.004807 
	C540.997620,286.364899 540.997620,320.720734 540.993896,355.541260 
	C538.296143,356.001678 535.602051,355.997406 532.459351,355.991333 
z"/>
<path fill="#070403" opacity="1.000000" stroke="none" 
	d="
M732.016602,815.957275 
	C723.985535,810.463379 721.495972,804.329834 723.819397,796.380066 
	C725.420410,790.901978 729.313843,788.022339 734.701843,786.116089 
	C741.924133,785.627686 748.338501,786.665161 751.951294,793.529236 
	C755.150330,799.607178 754.879150,805.816162 750.641846,811.199219 
	C746.525696,816.428345 740.827209,818.154114 733.832275,816.257202 
	C733.406677,816.202087 733.341370,816.190186 733.113708,816.096558 
	C732.599121,815.932068 732.309326,815.916809 732.016602,815.957275 
M733.256592,802.157471 
	C734.662170,804.177734 736.067749,806.198059 737.473267,808.218323 
	C740.217346,804.312805 746.853149,804.002075 742.362305,798.872620 
	C738.608887,794.585510 737.401062,794.958435 733.256592,802.157471 
z"/>
<path fill="#E9DD9F" opacity="1.000000" stroke="none" 
	d="
M734.999756,779.999390 
	C734.999573,779.998840 735.256592,779.584595 735.256592,779.584595 
	C735.256592,779.584595 735.234863,779.895691 735.117920,779.947998 
	C735.001038,780.000366 735.000000,780.000000 734.999756,779.999390 
z"/>
<path fill="#070403" opacity="1.000000" stroke="none" 
	d="
M501.402100,810.142883 
	C501.621643,808.011353 502.252930,805.843567 502.898712,803.331909 
	C504.093048,800.810303 505.272888,798.632507 506.884735,795.657227 
	C509.157104,800.486145 511.203247,804.834229 513.456116,809.621643 
	C511.912659,809.851685 510.851013,810.009888 509.014038,810.180115 
	C507.466522,810.241577 506.694397,810.291138 505.922272,810.340637 
	C504.552795,810.262634 503.183289,810.184570 501.402100,810.142883 
z"/>
<path fill="#DFCB80" opacity="1.000000" stroke="none" 
	d="
M505.749420,810.531738 
	C506.694397,810.291138 507.466522,810.241577 508.618225,810.275513 
	C507.682007,810.847595 506.366180,811.336121 505.050354,811.824646 
	C505.225739,811.457397 505.401154,811.090149 505.749420,810.531738 
z"/>
<path fill="#070403" opacity="1.000000" stroke="none" 
	d="
M420.556824,786.136841 
	C423.976715,786.638733 427.230743,786.754700 430.003296,787.969482 
	C435.515381,790.384644 437.927307,795.125610 438.016388,801.065063 
	C438.114655,807.613342 435.446564,812.486511 429.132843,815.508179 
	C417.994781,817.238708 417.994843,817.238708 417.995544,806.462769 
	C417.995880,801.149414 417.843170,795.828796 418.096008,790.527466 
	C418.165466,789.071167 419.447571,787.672729 420.556824,786.136841 
z"/>
<path fill="#F2EAB6" opacity="1.000000" stroke="none" 
	d="
M732.180908,816.152710 
	C732.309326,815.916809 732.599121,815.932068 733.081177,816.103516 
	C732.966003,816.252075 732.655579,816.300110 732.180908,816.152710 
z"/>
<path fill="#EEE4AB" opacity="1.000000" stroke="none" 
	d="
M733.160156,801.808411 
	C737.401062,794.958435 738.608887,794.585510 742.362305,798.872620 
	C746.853149,804.002075 740.217346,804.312805 737.473267,808.218323 
	C736.067749,806.198059 734.662170,804.177734 733.160156,801.808411 
z"/>
</svg>