<svg width="46" height="46" xmlns="http://www.w3.org/2000/svg" xmlns:xlink="http://www.w3.org/1999/xlink" xml:space="preserve" overflow="hidden"><defs><clipPath id="clip0"><rect x="640" y="-53" width="46" height="46"/></clipPath></defs><g clip-path="url(#clip0)" transform="translate(-640 53)"><path d="M663-45.3333C663-45.3333 651.012-45.3334 648.022-44.5322 646.372-44.0914 645.075-42.7927 644.634-41.1444 643.833-38.1544 643.833-30 643.833-30 643.833-30 643.833-21.8455 644.634-18.8555 645.075-17.2053 646.374-15.9087 648.022-15.4678 651.012-14.6667 663-14.6667 663-14.6667 663-14.6667 674.988-14.6667 677.978-15.4678 679.626-15.9087 680.925-17.2072 681.365-18.8555 682.167-21.8455 682.167-30 682.167-30 682.167-30 682.167-38.1544 681.365-41.1444 680.925-42.7927 679.626-44.0914 677.978-44.5322 674.988-45.3334 663-45.3333 663-45.3333ZM663-41.5C668.524-41.5 675.441-41.2439 676.986-40.8299 677.31-40.7437 677.575-40.4782 677.663-40.1524 678.125-38.4312 678.333-33.1778 678.333-30 678.333-26.8222 678.125-21.5707 677.663-19.8476 677.577-19.5237 677.312-19.2582 676.986-19.1701 675.443-18.7561 668.524-18.5 663-18.5 657.478-18.5 650.561-18.7561 649.014-19.1701 648.69-19.2563 648.425-19.5218 648.337-19.8476 647.875-21.5688 647.667-26.8222 647.667-30 647.667-33.1778 647.875-38.4311 648.337-40.1561 648.423-40.4781 648.688-40.7437 649.014-40.8299 650.557-41.2439 657.476-41.5 663-41.5ZM659.167-36.6409 659.167-23.3591 670.667-30 659.167-36.6409Z" stroke="#FFFFFF" stroke-width="1.53333" fill="#FFFFFF"/></g></svg>